<svg xmlns="http://www.w3.org/2000/svg" width="19" height="19" viewBox="0 0 19 19">
    <path fill-rule="nonzero" stroke="none" d="M6.334 9.5a3.167 3.167 0 1 1 6.333 0 3.167 3.167 0 0 1-6.333 0m-1.712 0a4.878 4.878 0 1 0 9.756 0 4.878 4.878 0 0 0-9.756 0m8.81-5.072a1.14 1.14 0 1 0 2.28 0 1.14 1.14 0 0 0-2.28 0m-7.77 12.805c-.926-.042-1.43-.197-1.764-.327a2.955 2.955 0 0 1-1.093-.71 2.936 2.936 0 0 1-.71-1.093c-.131-.334-.285-.838-.328-1.764-.046-1.001-.055-1.302-.055-3.839s.01-2.837.055-3.84c.043-.925.198-1.428.327-1.763.173-.444.379-.76.71-1.093a2.933 2.933 0 0 1 1.094-.71c.334-.131.838-.285 1.764-.328 1.001-.046 1.302-.055 3.838-.055 2.537 0 2.837.01 3.84.055.926.043 1.429.198 1.764.327.443.172.76.379 1.093.711.332.332.538.65.71 1.093.13.334.285.838.327 1.764.046 1.002.055 1.302.055 3.839 0 2.536-.009 2.837-.055 3.84-.042.925-.197 1.429-.327 1.763-.172.444-.378.76-.71 1.092-.333.333-.65.538-1.093.71-.335.131-.838.286-1.764.328-1.002.046-1.303.055-3.84.055-2.536 0-2.837-.01-3.838-.055M5.584.058C4.572.104 3.88.264 3.278.498a4.662 4.662 0 0 0-1.683 1.097A4.649 4.649 0 0 0 .499 3.277C.264 3.881.104 4.572.058 5.583.01 6.596 0 6.92 0 9.5s.01 2.904.058 3.917c.046 1.011.206 1.702.44 2.306a4.645 4.645 0 0 0 1.097 1.682 4.659 4.659 0 0 0 1.683 1.096c.604.235 1.294.395 2.306.441C6.597 18.988 6.92 19 9.5 19c2.581 0 2.904-.01 3.917-.058 1.012-.046 1.702-.206 2.306-.44a4.672 4.672 0 0 0 1.683-1.097 4.665 4.665 0 0 0 1.096-1.682c.235-.604.396-1.295.441-2.306C18.99 12.403 19 12.08 19 9.5s-.01-2.904-.057-3.917c-.046-1.011-.206-1.702-.441-2.306a4.672 4.672 0 0 0-1.096-1.682A4.66 4.66 0 0 0 15.724.499c-.605-.235-1.295-.396-2.306-.441C12.405.012 12.081 0 9.501 0S6.597.01 5.584.058"/>
</svg>
