<svg xmlns="http://www.w3.org/2000/svg" width="21" height="20" viewBox="0 0 21 20">
    <path fill-rule="evenodd" stroke-width="2" d="M10.49 14.246c-1.275.77-2.55 1.52-3.827 2.271L5.861 17l.22-.912c.327-1.412.674-2.843 1.002-4.273-1.13-.948-2.242-1.913-3.372-2.861L3 8.346l.948-.071c1.476-.143 2.952-.269 4.447-.394a381.648 381.648 0 0 1 1.731-4.023L10.491 3l.364.858 1.75 4.023c1.476.125 2.97.25 4.447.394l.948.071-.71.608c-1.13.948-2.26 1.913-3.373 2.86.328 1.431.657 2.862 1.003 4.274l.219.912-.82-.483a429.305 429.305 0 0 1-3.828-2.27z"/>
</svg>
