<svg xmlns="http://www.w3.org/2000/svg" width="20" height="11" viewBox="0 0 20 11">
    <path fill-rule="nonzero" stroke="none" d="M17.384 4.843c.253-.328.506-.656.675-.903 1.182-1.56 1.688-2.544 1.603-2.955l-.168-.082c-.085-.082-.17-.082-.338-.164-.169-.082-.422-.082-.675 0h-3.46l-.084.164c0 .082-.085.082-.085.164-.337.821-.675 1.642-1.097 2.217-.253.41-.506.82-.675 1.067-.253.328-.422.574-.506.656-.169.165-.253.247-.422.329-.084.082-.169.164-.253.082h-.169l-.253-.246c-.085-.082-.085-.247-.085-.41V.902c0-.082-.084-.246-.084-.328-.084-.082-.084-.165-.253-.247-.085-.082-.253-.082-.338-.164A6.22 6.22 0 0 0 9.283 0C8.017 0 7.257.082 6.835.246c-.168.082-.253.164-.421.329-.085.164-.17.246-.085.246.422.082.76.246.928.41l.085.165c.084.082.084.246.169.492.084.246.084.493.084.739V3.94c0 .329-.084.657-.084.821 0 .164-.085.329-.17.493-.084.164-.084.164-.168.246 0 0 0 .082-.084.082-.085 0-.17.082-.254.082-.084 0-.253-.082-.337-.164-.169-.082-.253-.246-.422-.41-.169-.165-.338-.41-.506-.74-.17-.328-.422-.656-.591-1.066l-.169-.329-.422-.82c-.169-.329-.337-.74-.506-1.068A1.137 1.137 0 0 0 3.629.74h.168S3.713.657 3.63.657c-.085 0-.17-.082-.253-.082H.59C.338.575.084.657 0 .739v.164c0 .082 0 .164.084.246a27.25 27.25 0 0 0 1.35 2.71C1.942 4.76 2.364 5.5 2.7 5.91c.338.575.76 1.068 1.097 1.56.338.493.591.821.76.903.084.164.59.575.59.575.17.164.423.328.76.574.338.247.675.493 1.097.657.422.246.844.41 1.35.575.507.164 1.013.164 1.52.164h1.18a.776.776 0 0 0 .592-.246v-.082s.084-.083.084-.165v-.246c0-.328 0-.575.084-.82.085-.247.085-.411.17-.575.084-.083.168-.247.252-.329l.17-.164h.083c.17-.082.338 0 .591.164.253.164.422.329.675.575.17.246.422.492.76.82.253.33.506.493.76.657l.168.165.506.246c.254.082.422.082.591.082h2.616c.253 0 .506-.082.59-.164.17-.082.254-.164.254-.246v-.329c0-.164-.084-.246-.084-.246 0-.082-.085-.082-.085-.164-.337-.657-1.012-1.396-1.94-2.217l-.845-.82c-.253-.247-.253-.575-.168-.821-.422 0-.085-.41.506-1.15"/>
</svg>
