<svg xmlns="http://www.w3.org/2000/svg" width="64" height="50" viewBox="0 0 64 50">
    <symbol id="monogram" viewBox="0 0 64 50">
        <g fill="none" fill-rule="nonzero">
            <path fill="#03499A" d="M13.058 18.492l-.247-.177a22.815 22.815 0 0 0-1.58 2.605l.263.138c.463-.889.986-1.746 1.564-2.566M9.165 28.377l-.302-.047a23.106 23.106 0 0 0-.214 3.047h.306c.004-1.003.074-2.006.21-3M18.075 13.335l-.179-.244a23.572 23.572 0 0 0-2.32 1.99l.216.213a23.233 23.233 0 0 1 2.283-1.959M28.602 8.978c1.001-.142 2.01-.22 3.021-.232v-.302a23.828 23.828 0 0 0-3.068.237l.047.297zM50.797 18.492a22.523 22.523 0 0 1 1.56 2.553l.263-.138a22.802 22.802 0 0 0-1.58-2.605l-.243.19zM35.292 8.678a23.87 23.87 0 0 0-3.06-.234v.302a23.54 23.54 0 0 1 3.01.232l.05-.3zM48.495 15.721c.7.718 1.35 1.48 1.95 2.282l.247-.177a23.38 23.38 0 0 0-1.978-2.316l-.219.211zM35.848 9.07c1 .168 1.989.403 2.958.702l.094-.286a23.322 23.322 0 0 0-3.002-.714l-.05.297zM39.385 9.962c.963.326 1.903.715 2.813 1.165l.142-.26a23.122 23.122 0 0 0-2.86-1.186l-.095.281zM20.996 11.124a23.22 23.22 0 0 0-2.61 1.607l.18.245c.82-.583 1.679-1.11 2.57-1.581l-.14-.27zM10.954 21.449a22.557 22.557 0 0 0-1.146 2.802l.29.094c.314-.944.692-1.866 1.13-2.76l-.274-.136zM42.74 11.403a22.89 22.89 0 0 1 2.55 1.563l.179-.245a23.154 23.154 0 0 0-2.589-1.597l-.14.279zM9.218 34.93a22.626 22.626 0 0 1-.263-2.951h-.3a22.93 22.93 0 0 0 .263 2.998l.3-.047zM9.018 35.57c.177.987.42 1.96.727 2.915l.29-.094a22.353 22.353 0 0 1-.722-2.865l-.295.045zM27.952 8.775a23.33 23.33 0 0 0-2.992.713l.095.287a23.03 23.03 0 0 1 2.947-.703l-.05-.297zM15.363 15.721l-.216-.213c-.71.729-1.37 1.503-1.978 2.318l.247.177a23.049 23.049 0 0 1 1.95-2.282M9.916 24.92l-.29-.093a22.684 22.684 0 0 0-.671 2.904l.303.047a22.38 22.38 0 0 1 .66-2.865M54.558 35.422a22.334 22.334 0 0 1-.743 2.98l.29.094c.32-.991.572-2.002.753-3.027l-.3-.047zM54.61 27.82l.3-.047a22.658 22.658 0 0 0-.679-2.944l-.29.094c.288.95.511 1.918.67 2.896M52.901 21.449l-.263.138c.438.894.816 1.817 1.13 2.76l.29-.093c-.32-.96-.703-1.897-1.149-2.805M55 28.369l-.3.047c.133.98.201 1.97.206 2.959h.305a23.093 23.093 0 0 0-.208-3.006M21.539 10.848l.14.26a22.828 22.828 0 0 1 2.794-1.156l-.095-.286c-.972.328-1.92.72-2.84 1.174M54.655 34.818l.3.047c.144-.956.227-1.92.248-2.886h-.305c-.021.95-.102 1.899-.243 2.839M45.782 13.335a23.218 23.218 0 0 1 2.284 1.96l.216-.215a23.556 23.556 0 0 0-2.32-1.99l-.18.245zM8.165 35.706c.183 1.032.436 2.05.755 3.05l.29-.094a23.299 23.299 0 0 1-.745-3.003l-.3.047zM55.42 35.547a23.313 23.313 0 0 1-.765 3.126l.29.093c.331-1.035.59-2.091.775-3.161l-.3-.058zM8.36 35.063a23.584 23.584 0 0 1-.264-3.084h-.305c.019 1.046.107 2.09.263 3.125l.306-.041zM9.105 24.66l-.29-.094c-.303.998-.54 2.014-.708 3.042l.303.047c.165-1.01.398-2.007.695-2.987M17.886 12.049l.179.245a23.747 23.747 0 0 1 2.681-1.654l-.14-.26a24.012 24.012 0 0 0-2.723 1.677M55.756 27.64a23.593 23.593 0 0 0-.71-3.071l-.29.094c.301.992.536 2.003.703 3.026l.297-.05zM35.985 8.23a23.79 23.79 0 0 1 3.084.735l.095-.287a24.132 24.132 0 0 0-3.132-.747l-.047.3zM8.317 28.244l-.3-.047a24.026 24.026 0 0 0-.229 3.178h.305c.006-1.046.081-2.09.224-3.126M21.149 10.093l.14.26c.944-.467 1.919-.87 2.918-1.208l-.095-.29c-1.015.346-2.005.76-2.963 1.238M12.379 17.998l-.264-.178a23.68 23.68 0 0 0-1.654 2.707l.264.138a23.427 23.427 0 0 1 1.654-2.667M28.468 8.137c1.047-.15 2.103-.23 3.16-.243v-.302a24.69 24.69 0 0 0-3.202.248l.042.297zM24.694 8.678l.095.287a23.832 23.832 0 0 1 3.076-.735l-.047-.3c-1.057.18-2.1.429-3.124.746M43.138 10.653c.92.488 1.808 1.036 2.655 1.64l.179-.244a23.98 23.98 0 0 0-2.694-1.665l-.14.269zM17.572 12.65l-.19-.242a24.437 24.437 0 0 0-2.42 2.084l.216.213a24.1 24.1 0 0 1 2.384-2.044M39.651 9.152c1.008.341 1.992.75 2.945 1.222l.142-.26a23.909 23.909 0 0 0-2.995-1.258l-.092.296zM53.386 20.527a23.69 23.69 0 0 0-1.654-2.707l-.248.178a23.392 23.392 0 0 1 1.628 2.664l.274-.135zM55.835 28.236l-.3.047a23.77 23.77 0 0 1 .219 3.092h.305a24.064 24.064 0 0 0-.224-3.139M14.749 15.127l-.216-.213c-.74.76-1.43 1.568-2.065 2.417l.248.177a23.96 23.96 0 0 1 2.033-2.38M48.882 14.484a24.458 24.458 0 0 0-2.42-2.084l-.18.245c.84.63 1.636 1.313 2.384 2.045l.216-.206zM51.376 17.33a24.292 24.292 0 0 0-2.064-2.416l-.216.213c.73.75 1.408 1.544 2.033 2.38l.247-.176zM54.858 23.99c-.334-1-.735-1.977-1.2-2.924l-.264.138a23.22 23.22 0 0 1 1.182 2.883l.282-.096zM35.432 7.837a24.672 24.672 0 0 0-3.198-.245v.302c1.058.013 2.114.094 3.16.243l.038-.3zM55.514 34.95l.3.048c.148-1 .231-2.009.25-3.019h-.305c-.019.995-.1 1.987-.245 2.972M10.198 21.066a23.513 23.513 0 0 0-1.201 2.925l.29.093c.328-.985.724-1.947 1.182-2.88l-.271-.138zM56.691 28.103l-.3.047c.149 1.069.227 2.146.235 3.225h.305a25.036 25.036 0 0 0-.24-3.272M9.713 20.821l-.263-.138a24.383 24.383 0 0 0-1.254 3.047l.29.094c.343-1.027.756-2.03 1.235-3.003M56.28 35.683a24.216 24.216 0 0 1-.79 3.253l.29.094c.34-1.08.603-2.182.79-3.298l-.29-.05zM11.438 17.328c-.637.9-1.212 1.842-1.722 2.818l.263.138a24.296 24.296 0 0 1 1.696-2.776l-.237-.18zM28.331 7.293c1.09-.159 2.19-.246 3.292-.26V6.74c-1.117.013-2.233.1-3.34.26l.048.292zM14.159 14.53l-.216-.205a25.193 25.193 0 0 0-2.152 2.519l.248.177a24.87 24.87 0 0 1 2.107-2.482M7.498 35.198a24.514 24.514 0 0 1-.263-3.219h-.306c.016 1.093.104 2.184.264 3.266l.305-.047zM24.428 7.868l.095.287a24.667 24.667 0 0 1 3.208-.766l-.048-.297c-1.101.188-2.189.449-3.255.782M54.142 20.146a24.612 24.612 0 0 0-1.73-2.818l-.248.177a24.332 24.332 0 0 1 1.696 2.78l.282-.139zM56.602 27.507a24.53 24.53 0 0 0-.748-3.201l-.29.094c.316 1.034.562 2.087.738 3.154l.3-.047zM43.533 9.897c.958.509 1.881 1.08 2.763 1.709l.18-.245a24.885 24.885 0 0 0-2.8-1.724l-.143.26zM17.383 11.364l.179.245a24.538 24.538 0 0 1 2.794-1.727l-.14-.26c-.982.517-1.93 1.099-2.833 1.742M7.293 35.842c.192 1.077.456 2.14.79 3.182l.29-.093a24.258 24.258 0 0 1-.77-3.126l-.31.037zM14.372 13.888l.216.213c.78-.76 1.61-1.468 2.484-2.12l-.18-.26a25.25 25.25 0 0 0-2.52 2.164M20.762 9.337l.14.26c.982-.488 1.998-.91 3.039-1.262l-.095-.287a24.778 24.778 0 0 0-3.087 1.282M36.122 7.39c1.087.183 2.16.44 3.213.768l.095-.287a24.97 24.97 0 0 0-3.258-.781l-.05.3zM52.064 16.839a25.176 25.176 0 0 0-2.152-2.514l-.216.214a24.89 24.89 0 0 1 2.107 2.482l.26-.182zM49.485 13.888a25.249 25.249 0 0 0-2.52-2.167l-.18.244A25.02 25.02 0 0 1 49.27 14.1l.216-.211zM7.472 28.114l-.3-.047a25.023 25.023 0 0 0-.245 3.308h.305c.008-1.091.088-2.18.24-3.261M8.294 24.4l-.29-.094a24.512 24.512 0 0 0-.743 3.164l.3.047c.175-1.056.42-2.1.733-3.125M35.569 6.996a25.51 25.51 0 0 0-3.335-.26v.296c1.1.015 2.199.102 3.287.26l.048-.296zM39.917 8.335c1.054.356 2.082.783 3.076 1.278l.142-.26a24.766 24.766 0 0 0-3.123-1.302l-.095.284zM55.67 23.733a24.398 24.398 0 0 0-1.254-3.047l-.264.138c.48.972.892 1.975 1.236 3.003l.281-.094zM56.375 35.084l.3.046c.155-1.044.243-2.096.264-3.151h-.313a24.54 24.54 0 0 1-.248 3.105M43.928 9.152a25.401 25.401 0 0 1 2.868 1.787l.18-.245a25.705 25.705 0 0 0-2.898-1.8l-.15.258zM13.988 13.51a25.882 25.882 0 0 1 2.584-2.222l-.18-.245a26.207 26.207 0 0 0-2.62 2.24l.216.227zM56.475 23.472a25.366 25.366 0 0 0-1.316-3.167l-.264.138a25.025 25.025 0 0 1 1.285 3.126l.295-.097zM35.706 6.155a26.294 26.294 0 0 0-3.474-.26v.301c1.146.012 2.29.099 3.424.26l.05-.301zM28.197 6.454a26.009 26.009 0 0 1 3.424-.26v-.308c-1.163.01-2.323.097-3.474.26l.05.308zM10.754 16.836a25.55 25.55 0 0 0-1.8 2.928l.264.138c.523-1.001 1.112-1.966 1.765-2.889l-.23-.177zM54.895 19.766a25.562 25.562 0 0 0-1.79-2.93l-.248.177c.653.924 1.244 1.89 1.767 2.891l.271-.138zM13.561 13.94l-.216-.214c-.803.824-1.55 1.7-2.236 2.62l.248.177a25.775 25.775 0 0 1 2.204-2.583M7.488 24.142l-.29-.094c-.336 1.08-.6 2.179-.79 3.292l.303.047c.183-1.097.44-2.181.766-3.245M52.749 16.346a26.094 26.094 0 0 0-2.236-2.62l-.216.214a25.833 25.833 0 0 1 2.204 2.583l.248-.177zM24.162 7.061l.095.287a25.52 25.52 0 0 1 3.34-.8l-.05-.297a25.786 25.786 0 0 0-3.388.81M40.18 7.538c1.1.371 2.172.818 3.208 1.336l.143-.26a25.604 25.604 0 0 0-3.253-1.355l-.098.279zM57.534 27.973l-.3.047c.161 1.112.249 2.234.263 3.357h.306a26.02 26.02 0 0 0-.264-3.404M36.261 6.548c1.13.191 2.246.458 3.34.8l.095-.287a25.764 25.764 0 0 0-3.387-.81l-.048.297zM16.882 10.679l.18.245a25.429 25.429 0 0 1 2.897-1.798l-.14-.26a25.694 25.694 0 0 0-2.95 1.823M57.24 35.219l.3.047a25.82 25.82 0 0 0 .263-3.284h-.306a25.536 25.536 0 0 1-.247 3.237M47.286 11.288c.91.684 1.773 1.426 2.584 2.222l.216-.214a26.204 26.204 0 0 0-2.618-2.253l-.182.245zM8.955 20.44l-.264-.124a25.35 25.35 0 0 0-1.317 3.17l.29.093c.358-1.069.789-2.113 1.288-3.125M57.152 35.815a25.202 25.202 0 0 1-.806 3.386l.29.094c.351-1.125.624-2.273.817-3.435l-.3-.045zM57.445 27.377a25.491 25.491 0 0 0-.79-3.326l-.29.093a25.21 25.21 0 0 1 .774 3.282l.306-.05zM6.637 35.334a25.531 25.531 0 0 1-.263-3.355h-.316c.012 1.138.1 2.275.263 3.402l.316-.047zM6.63 27.984l-.309-.047a25.995 25.995 0 0 0-.263 3.438h.305c.013-1.133.101-2.265.264-3.386M6.429 35.977a25.47 25.47 0 0 0 .79 3.32l.29-.093a25.178 25.178 0 0 1-.79-3.274l-.29.047zM20.372 8.595l.14.26a25.3 25.3 0 0 1 3.16-1.315l-.095-.286c-1.098.374-2.169.822-3.205 1.341M40.439 6.754c1.143.384 2.258.847 3.336 1.385l.143-.26a26.445 26.445 0 0 0-3.385-1.404l-.094.279zM5.773 27.85l-.303-.046a26.734 26.734 0 0 0-.263 3.57h.305c.01-1.178.098-2.356.264-3.523M5.584 36.11c.2 1.166.479 2.319.834 3.448l.29-.094a25.934 25.934 0 0 1-.824-3.401l-.3.047zM36.393 5.73c1.173.197 2.331.473 3.466.826l.095-.287a26.685 26.685 0 0 0-3.51-.836l-.05.297zM55.662 19.38a26.337 26.337 0 0 0-1.865-3.042l-.248.178a26.04 26.04 0 0 1 1.844 3l.269-.135zM44.318 8.418a26.301 26.301 0 0 1 2.974 1.836l.179-.245a26.563 26.563 0 0 0-3.013-1.86l-.14.269zM16.387 10.01l.18.244a26.323 26.323 0 0 1 3.023-1.862l-.14-.26a26.587 26.587 0 0 0-3.063 1.885M10.306 16.516l-.248-.178c-.689.971-1.311 1.987-1.862 3.04l.264.138a26.024 26.024 0 0 1 1.843-3M58.087 35.35l.303.046c.161-1.132.25-2.274.263-3.417h-.305a26.278 26.278 0 0 1-.263 3.37M47.781 10.611a26.752 26.752 0 0 1 2.687 2.302l.216-.213a27.042 27.042 0 0 0-2.724-2.344l-.179.255zM57.297 23.21a26.095 26.095 0 0 0-1.359-3.29l-.263.138c.52 1.051.968 2.136 1.34 3.248l.282-.097zM53.441 15.849a26.942 26.942 0 0 0-2.325-2.717l-.216.214a26.611 26.611 0 0 1 2.302 2.68l.24-.177zM6.666 23.879l-.29-.094a26.229 26.229 0 0 0-.81 3.425l.3.047a25.91 25.91 0 0 1 .79-3.386M5.794 35.466a26.237 26.237 0 0 1-.279-3.487h-.31c.015 1.183.11 2.364.284 3.534l.305-.047zM58.39 27.838l-.3.047c.165 1.156.253 2.322.263 3.49h.306a26.744 26.744 0 0 0-.264-3.537M58.298 27.241a26.244 26.244 0 0 0-.817-3.456l-.29.094c.346 1.118.615 2.258.807 3.412l.3-.05zM19.993 7.845l.14.26a26.175 26.175 0 0 1 3.286-1.362l-.095-.286a26.477 26.477 0 0 0-3.331 1.38M8.194 20.055l-.264-.138a26.12 26.12 0 0 0-1.359 3.292l.29.094c.37-1.111.815-2.196 1.333-3.248M28.068 5.644a26.928 26.928 0 0 1 3.555-.26v-.315c-1.206.012-2.41.104-3.603.276l.048.3zM35.84 5.347a27.279 27.279 0 0 0-3.606-.276v.302c1.19.013 2.378.104 3.556.274l.05-.3zM12.745 13.132a26.944 26.944 0 0 0-2.326 2.717l.248.177a26.643 26.643 0 0 1 2.291-2.68l-.213-.214zM57.992 35.943a25.92 25.92 0 0 1-.842 3.519l.29.094c.368-1.168.654-2.36.855-3.566l-.303-.047zM23.904 6.28l.095.286a26.402 26.402 0 0 1 3.466-.836l-.048-.3c-1.189.2-2.363.48-3.513.84M13.169 12.703l.216.213a26.78 26.78 0 0 1 2.68-2.305l-.178-.245c-.96.72-1.87 1.504-2.724 2.344M48.298 9.897a27.64 27.64 0 0 1 2.797 2.41l.216-.214a27.943 27.943 0 0 0-2.824-2.427l-.19.231zM44.726 7.642a27.076 27.076 0 0 1 3.082 1.909l.179-.245a27.44 27.44 0 0 0-3.119-1.932l-.142.268zM40.715 5.915c1.19.4 2.35.884 3.471 1.446l.143-.26a27.273 27.273 0 0 0-3.52-1.467l-.094.281zM36.535 4.865c1.218.207 2.42.495 3.598.865l.095-.286a27.476 27.476 0 0 0-3.643-.873l-.05.294zM58.854 36.079a26.874 26.874 0 0 1-.864 3.646l.29.094c.378-1.212.671-2.45.877-3.701l-.303-.04zM58.11 22.949a27.039 27.039 0 0 0-1.408-3.415l-.263.138a26.765 26.765 0 0 1 1.39 3.37l.282-.093zM5.852 23.616l-.29-.094a27.222 27.222 0 0 0-.842 3.566l.3.046c.199-1.186.477-2.358.832-3.508M35.982 4.472a28.107 28.107 0 0 0-3.75-.29v.303c1.234.013 2.466.11 3.687.287l.063-.3zM59.143 27.108a27.189 27.189 0 0 0-.848-3.586l-.29.094c.36 1.16.64 2.342.838 3.54l.3-.048zM7.43 19.667l-.264-.138a27.06 27.06 0 0 0-1.409 3.417l.29.094c.386-1.158.85-2.29 1.39-3.386M12.558 12.093l.216.214a27.635 27.635 0 0 1 2.786-2.41l-.179-.244a27.964 27.964 0 0 0-2.823 2.427M27.918 4.769a27.753 27.753 0 0 1 3.687-.284v-.302c-1.253.013-2.503.11-3.743.29l.056.296zM9.966 15.523c.727-.98 1.519-1.91 2.37-2.787l-.216-.213a27.84 27.84 0 0 0-2.401 2.823l.247.177zM56.428 18.995a27.291 27.291 0 0 0-1.933-3.157l-.248.178a26.97 26.97 0 0 1 1.907 3.125l.274-.146zM7.432 18.993l.264.138a26.928 26.928 0 0 1 1.907-3.126l-.248-.177a27.223 27.223 0 0 0-1.93 3.154M4.928 27.72l-.303-.046a27.757 27.757 0 0 0-.285 3.7h.306c.012-1.22.105-2.438.28-3.646M54.14 15.346a27.876 27.876 0 0 0-2.41-2.823l-.217.213a27.553 27.553 0 0 1 2.37 2.787l.256-.177zM59.523 31.375a27.723 27.723 0 0 0-.28-3.67l-.3.047c.168 1.2.256 2.41.264 3.623h.316zM23.627 5.438l.095.287a27.165 27.165 0 0 1 3.603-.862l-.047-.297a27.468 27.468 0 0 0-3.648.872M4.722 36.245c.204 1.212.49 2.41.856 3.584l.29-.094a26.921 26.921 0 0 1-.845-3.531l-.3.041zM16.05 9.551c1-.716 2.048-1.363 3.137-1.938l-.14-.26a27.415 27.415 0 0 0-3.179 1.964l.182.234zM19.59 7.066l.14.26a26.978 26.978 0 0 1 3.423-1.419l-.095-.286c-1.184.4-2.34.88-3.458 1.437M59.523 31.979h-.306a27.308 27.308 0 0 1-.263 3.503l.303.047c.164-1.177.252-2.362.263-3.55M4.928 35.602c-.175-1.2-.269-2.41-.282-3.623H4.34c.014 1.228.11 2.454.287 3.67l.3-.047zM60.379 31.979h-.306a28.271 28.271 0 0 1-.263 3.646l.3.047c.167-1.22.255-2.45.263-3.683M58.917 22.688a27.971 27.971 0 0 0-1.462-3.534l-.263.138a27.712 27.712 0 0 1 1.443 3.493l.282-.097zM3.858 36.38c.21 1.262.504 2.508.883 3.73l.29-.093a27.852 27.852 0 0 1-.867-3.673l-.306.037zM27.794 3.928a28.554 28.554 0 0 1 3.83-.297v-.302a28.866 28.866 0 0 0-3.877.3l.047.299zM45.121 6.892a27.967 27.967 0 0 1 3.187 1.977l.18-.245a28.255 28.255 0 0 0-3.224-2l-.143.268zM9.034 14.846l.247.177a28.5 28.5 0 0 1 2.466-2.888l-.216-.214a28.766 28.766 0 0 0-2.497 2.925M36.122 3.63a28.855 28.855 0 0 0-3.888-.299v.302c1.288.012 2.574.11 3.848.295l.04-.297zM3.48 31.979c.01 1.272.106 2.543.286 3.803l.3-.047a28.287 28.287 0 0 1-.284-3.756H3.48zM6.95 18.753a27.897 27.897 0 0 1 1.976-3.225l-.248-.177a28.193 28.193 0 0 0-1.999 3.266l.271.136zM3.78 27.543a28.705 28.705 0 0 0-.3 3.832h.305c.014-1.267.114-2.531.297-3.785l-.303-.047zM15.37 8.624l.18.245a27.952 27.952 0 0 1 3.25-2.011l-.14-.26a28.29 28.29 0 0 0-3.29 2.036M23.456 4.917a28.002 28.002 0 0 1 3.732-.896l-.047-.296c-1.28.215-2.543.518-3.78.906l.095.286zM52.111 12.145c.886.908 1.71 1.873 2.465 2.889l.248-.178a28.766 28.766 0 0 0-2.497-2.924l-.216.213zM5.046 23.358l-.29-.094a28.126 28.126 0 0 0-.88 3.686l.304.046c.207-1.233.497-2.451.869-3.646M54.932 15.52a27.904 27.904 0 0 1 1.978 3.233l.263-.138a28.19 28.19 0 0 0-2.001-3.269l-.24.175zM48.798 9.228a28.545 28.545 0 0 1 2.897 2.485l.216-.214a28.848 28.848 0 0 0-2.923-2.516l-.19.245zM59.986 26.978a28.141 28.141 0 0 0-.885-3.714l-.29.094c.375 1.202.667 2.427.875 3.667l.3-.047zM19.2 6.31l.14.261A27.785 27.785 0 0 1 22.877 5.1l-.095-.287a28.074 28.074 0 0 0-3.582 1.49M60.376 31.375a28.723 28.723 0 0 0-.295-3.803l-.295.036c.18 1.245.278 2.5.292 3.756l.298.01zM40.494 4.63a28.279 28.279 0 0 0-3.772-.903l-.05.297c1.262.212 2.507.511 3.727.893l.095-.286zM6.674 19.274l-.263-.138a27.979 27.979 0 0 0-1.462 3.54l.29.093a27.67 27.67 0 0 1 1.435-3.495M11.957 11.5l.216.213a28.563 28.563 0 0 1 2.897-2.485l-.179-.245a28.848 28.848 0 0 0-2.923 2.516M59.718 36.204a27.848 27.848 0 0 1-.885 3.792l.29.094c.388-1.258.688-2.54.897-3.84l-.302-.046zM40.978 5.108c1.236.417 2.44.92 3.603 1.505l.143-.26a28.113 28.113 0 0 0-3.638-1.535l-.108.29zM2.995 36.516c.211 1.304.511 2.591.898 3.855l.29-.094a28.828 28.828 0 0 1-.888-3.813l-.3.052zM41.35 4.016l-.092.282c1.28.432 2.527.954 3.732 1.562l.137-.26a28.479 28.479 0 0 0-3.777-1.584M2.937 27.413a29.672 29.672 0 0 0-.316 3.962h.302a29.37 29.37 0 0 1 .314-3.907l-.3-.055zM52.712 11.551c.916.94 1.768 1.939 2.55 2.99l.247-.177a29.73 29.73 0 0 0-2.57-3.026l-.227.213zM49.298 8.546c1.053.79 2.05 1.65 2.987 2.573l.216-.214a29.548 29.548 0 0 0-3.02-2.604l-.183.245zM4.132 22.428l.29.094a28.613 28.613 0 0 1 1.496-3.618l-.263-.138a28.926 28.926 0 0 0-1.515 3.662M23.193 4.11a28.834 28.834 0 0 1 3.863-.927l-.047-.297a29.036 29.036 0 0 0-3.911.94l.095.284zM4.238 23.097l-.287-.093a29.1 29.1 0 0 0-.92 3.823l.3.047c.218-1.274.52-2.532.907-3.766M57.942 18.232a29.071 29.071 0 0 0-2.072-3.386l-.248.177a28.804 28.804 0 0 1 2.046 3.342l.274-.133zM60.576 36.347a28.814 28.814 0 0 1-.906 3.93l.29.094c.398-1.303.704-2.632.916-3.977l-.3-.047zM20.517 4.777a31.42 31.42 0 0 0-1.702.781l.135.26a28.62 28.62 0 0 1 3.66-1.526l-.091-.281a30.31 30.31 0 0 0-2.002.76M59.723 22.428a28.942 28.942 0 0 0-1.512-3.646l-.263.138c.58 1.169 1.08 2.376 1.496 3.612l.279-.104zM11.573 11.119a29.43 29.43 0 0 1 2.986-2.573L14.38 8.3c-1.065.8-2.074 1.67-3.02 2.604l.213.214zM14.87 7.944l.18.242a28.799 28.799 0 0 1 3.363-2.083l-.135-.26a29.114 29.114 0 0 0-3.408 2.1M60.84 26.845a29.122 29.122 0 0 0-.92-3.841l-.29.093c.389 1.244.693 2.512.91 3.795l.3-.047zM5.923 18.232l.264.138a28.773 28.773 0 0 1 2.043-3.336l-.237-.188a29.11 29.11 0 0 0-2.07 3.386M61.237 31.375a29.684 29.684 0 0 0-.313-3.936l-.3.047c.188 1.288.291 2.587.308 3.889h.305zM27.654 3.086a29.449 29.449 0 0 1 3.964-.307v-.302a29.595 29.595 0 0 0-4.014.312l.05.297zM36.259 2.79a29.627 29.627 0 0 0-4.025-.313v.302c1.332.012 2.66.115 3.977.307l.048-.297zM45.519 6.142a28.842 28.842 0 0 1 3.29 2.047l.179-.242a29.092 29.092 0 0 0-3.332-2.063l-.137.258zM40.757 3.826a28.953 28.953 0 0 0-3.885-.94l-.047.297c1.305.22 2.592.53 3.853.927l.08-.284zM8.349 14.362l.248.177a29.393 29.393 0 0 1 2.549-2.99l-.216-.214c-.928.95-1.79 1.96-2.581 3.024M2.615 31.979c.006 1.317.1 2.633.282 3.938l.3-.047a29.253 29.253 0 0 1-.284-3.891h-.298zM61.242 31.979h-.305a29.253 29.253 0 0 1-.263 3.769l.302.047c.17-1.265.258-2.54.264-3.816M2.091 27.283a30.545 30.545 0 0 0-.334 4.092h.305c.02-1.354.131-2.706.332-4.045l-.303-.047zM49.801 7.866a30.118 30.118 0 0 1 3.085 2.66l.216-.214A30.438 30.438 0 0 0 49.98 7.62l-.18.245zM53.312 10.957a30.34 30.34 0 0 1 2.634 3.09l.245-.178a30.39 30.39 0 0 0-2.663-3.125l-.216.213zM3.424 22.837l-.285-.091a29.934 29.934 0 0 0-.956 3.94l.3.047c.226-1.321.54-2.626.94-3.907M56.302 14.539a29.728 29.728 0 0 1 2.107 3.453l.263-.132a30.022 30.022 0 0 0-2.136-3.496l-.234.175zM62.104 31.979h-.306a30.25 30.25 0 0 1-.263 3.907l.3.047a30.52 30.52 0 0 0 .263-3.949M61.445 36.48a29.773 29.773 0 0 1-.927 4.068l.29.094c.409-1.349.722-2.724.938-4.115l-.3-.047zM58.693 18.529a29.55 29.55 0 0 1 1.546 3.732l.284-.09a29.885 29.885 0 0 0-1.567-3.772l-.263.13zM3.332 22.17l.284.091a29.55 29.55 0 0 1 1.549-3.737L4.9 18.39a37.432 37.432 0 0 0-.79 1.693c-.29.694-.553 1.389-.79 2.084M5.441 17.985a29.715 29.715 0 0 1 2.107-3.449l-.245-.177a29.983 29.983 0 0 0-2.133 3.49l.271.136zM41.023 3.019A29.756 29.756 0 0 0 37 2.045l-.05.3c1.347.227 2.677.548 3.98.96l.094-.286zM22.927 3.305a29.49 29.49 0 0 1 3.995-.96l-.058-.3c-1.364.23-2.711.556-4.03.974l.093.286zM43.554 4.274c.617.26 1.221.542 1.815.844l.142-.26c-.6-.304-1.215-.588-1.844-.852-.683-.29-1.373-.55-2.072-.782l-.095.287c.69.234 1.372.495 2.046.781M27.523 2.245c1.358-.2 2.728-.305 4.1-.318v-.302c-1.388.013-2.774.12-4.148.323l.048.297zM36.396 1.948a30.407 30.407 0 0 0-4.162-.323v.302c1.377.013 2.75.12 4.112.32l.05-.299zM61.672 26.713a29.9 29.9 0 0 0-.959-3.967l-.284.09a29.76 29.76 0 0 1 .937 3.923l.306-.046zM14.367 7.262l.18.244a29.647 29.647 0 0 1 3.476-2.148l-.14-.26a29.926 29.926 0 0 0-3.519 2.174M7.901 14.046a30.299 30.299 0 0 1 2.634-3.089l-.216-.213a30.38 30.38 0 0 0-2.663 3.125l.245.177zM45.911 5.397c1.18.625 2.317 1.33 3.4 2.107l.18-.245a29.915 29.915 0 0 0-3.437-2.13l-.143.268zM10.756 10.312l.216.213a30.133 30.133 0 0 1 3.084-2.66l-.179-.244a30.388 30.388 0 0 0-3.12 2.69M18.436 4.808l.14.26a32.067 32.067 0 0 1 1.735-.804 31.336 31.336 0 0 1 2.047-.782l-.095-.286c-.702.236-1.393.496-2.073.781-.6.266-1.185.543-1.754.831M1.754 31.979c.006 1.363.102 2.723.29 4.074l.3-.047a30.26 30.26 0 0 1-.284-4.027h-.306zM62.098 31.375c-.02-1.361-.13-2.72-.331-4.066l-.3.047c.197 1.33.306 2.673.326 4.019h.305zM2.13 36.649c.216 1.346.523 2.677.92 3.982l.29-.093a29.8 29.8 0 0 1-.906-3.944l-.303.055zM41.292 2.203a30.673 30.673 0 0 0-4.156-1.002l-.05.297c1.391.235 2.764.566 4.108.992l.098-.287zM57.01 14.028a30.503 30.503 0 0 1 2.183 3.571l.264-.135a30.757 30.757 0 0 0-2.207-3.613l-.24.177zM53.931 10.345a30.886 30.886 0 0 1 2.723 3.199l.248-.177a31.245 31.245 0 0 0-2.755-3.23l-.216.208zM45.772 4.357l.142-.26a32.499 32.499 0 0 0-1.901-.883 29.128 29.128 0 0 0-2.142-.813l-.095.287a30.17 30.17 0 0 1 3.988 1.675M36.535 1.107a31.316 31.316 0 0 0-4.3-.326v.29c1.422.012 2.843.123 4.25.33l.05-.294zM61.069 21.998l.29-.094a30.889 30.889 0 0 0-1.62-3.901l-.264.138c.264.555.527 1.12.79 1.693.302.713.576 1.435.822 2.164M50.305 7.168a30.94 30.94 0 0 1 3.192 2.748l.216-.214a31.242 31.242 0 0 0-3.227-2.779l-.181.245zM62.965 31.375a31.274 31.274 0 0 0-.337-4.201l-.303.046c.204 1.376.315 2.764.332 4.155h.308zM62.965 31.979h-.306a30.958 30.958 0 0 1-.287 4.032l.3.047c.186-1.352.283-2.715.29-4.079M1.29 36.782a30.82 30.82 0 0 0 .96 4.11l.289-.094a30.514 30.514 0 0 1-.959-4.074l-.29.058zM62.533 26.567a30.63 30.63 0 0 0-.988-4.1l-.292.094c.419 1.327.745 2.681.977 4.053l.303-.047zM1.233 27.15c-.21 1.4-.323 2.81-.34 4.225H1.2a30.96 30.96 0 0 1 .334-4.168l-.302-.057zM.89 31.979a31.27 31.27 0 0 0 .308 4.206l.3-.047a30.995 30.995 0 0 1-.305-4.167l-.303.008zM46.312 4.636c1.218.645 2.39 1.37 3.508 2.172l.179-.244a30.791 30.791 0 0 0-3.548-2.196l-.14.268zM10.137 9.702l.216.214a30.95 30.95 0 0 1 3.192-2.748l-.179-.245a31.242 31.242 0 0 0-3.229 2.779M14.035 6.808A30.47 30.47 0 0 1 17.63 4.59l-.14-.26a30.808 30.808 0 0 0-3.634 2.242l.18.237zM6.956 13.361l.247.178a30.94 30.94 0 0 1 2.724-3.194l-.216-.213a31.242 31.242 0 0 0-2.755 3.23M4.396 17.45l.263.139a30.492 30.492 0 0 1 2.189-3.56L6.6 13.85a30.784 30.784 0 0 0-2.204 3.6M3.33 19.717c-.306.72-.583 1.45-.83 2.187l.29.094c.245-.73.519-1.45.82-2.164.246-.576.507-1.141.791-1.698l-.263-.138c-.281.564-.545 1.137-.79 1.719M2.602 22.571l-.29-.094a30.603 30.603 0 0 0-.995 4.09l.303.047c.234-1.368.562-2.719.982-4.043M27.39 1.401a31.014 31.014 0 0 1 4.236-.33V.78a31.31 31.31 0 0 0-4.282.334l.047.286zM18.033 4.045l.14.26a32.84 32.84 0 0 1 1.793-.828 32.637 32.637 0 0 1 2.107-.802l-.094-.287a30.388 30.388 0 0 0-3.954 1.652M62.285 36.61a30.497 30.497 0 0 1-.969 4.193l.29.094c.426-1.39.754-2.806.98-4.24l-.3-.047zM22.65 2.49a30.405 30.405 0 0 1 4.135-.992l-.047-.297a30.658 30.658 0 0 0-4.172 1.002l.084.287zM21.931 28.783a10.207 10.207 0 0 0-.426 2.605h.305a9.91 9.91 0 0 1 .41-2.5l-.147-.048-.142-.057zM35.395 22.1l-.048.146c.81.282 1.582.666 2.294 1.14l.093-.125.087-.12a10.49 10.49 0 0 0-2.37-1.184l-.056.143zM32.234 21.527v.15c.857.022 1.708.15 2.531.384l.048-.146.047-.143a10.546 10.546 0 0 0-2.633-.399l.007.154zM40.578 25.835l-.121.086-.126.09a10.01 10.01 0 0 1 1.19 2.267l.147-.047.143-.047a10.295 10.295 0 0 0-1.236-2.344M23.338 25.876a10.293 10.293 0 0 0-1.215 2.345l.143.046.147.047a9.997 9.997 0 0 1 1.172-2.268l-.126-.091-.121-.079zM29.05 21.94l.048.147c.82-.24 1.67-.375 2.525-.404v-.302c-.888.029-1.768.17-2.62.42l.047.14zM28.423 21.985c-.83.299-1.62.7-2.349 1.196l.087.117.092.125a10.19 10.19 0 0 1 2.273-1.154l-.055-.13-.048-.154zM38.316 23.496l-.087.117-.092.125a10.2 10.2 0 0 1 1.843 1.787l.127-.091.118-.086a10.514 10.514 0 0 0-1.899-1.855M25.571 23.538a10.503 10.503 0 0 0-1.867 1.851l.118.086.127.091a10.197 10.197 0 0 1 1.806-1.784l-.092-.125-.092-.12zM21.657 31.979h-.152c.02.881.153 1.757.397 2.605l.145-.047.145-.047a9.946 9.946 0 0 1-.385-2.508l-.15-.003zM42.14 31.979a9.94 9.94 0 0 1-.39 2.537l.145.047.145.047c.249-.856.385-1.739.405-2.628h-.305v-.003zM42.287 31.375h.153a10.205 10.205 0 0 0-.434-2.618l-.145.047-.148.047c.249.82.39 1.67.419 2.526l.155-.002zM32.234 20.803c.947.023 1.886.166 2.795.427l.095-.287a11.442 11.442 0 0 0-2.897-.44l.007.3zM40.686 25.004l.248-.177a11.4 11.4 0 0 0-2.107-2.047l-.18.244a11.09 11.09 0 0 1 2.029 1.98M42.667 27.913a11.173 11.173 0 0 0-1.362-2.604l-.248.177c.547.776.99 1.619 1.317 2.508l.293-.08zM42.588 34.787l.29.093c.276-.942.427-1.917.447-2.898h-.305c-.02.95-.166 1.892-.432 2.805M25.231 23.077l-.179-.245a11.397 11.397 0 0 0-2.07 2.044l.248.177a11.083 11.083 0 0 1 2.001-1.98M20.622 31.375h.306c.03-.94.183-1.871.455-2.772l-.29-.093a11.07 11.07 0 0 0-.468 2.865M22.869 25.54l-.248-.177a11.155 11.155 0 0 0-1.34 2.576l.29.094a10.87 10.87 0 0 1 1.295-2.493M35.621 21.412c.9.312 1.754.737 2.542 1.266l.18-.245a11.376 11.376 0 0 0-2.635-1.302l-.087.281zM28.244 21.44l-.095-.286c-.921.327-1.796.771-2.602 1.32l.18.246a11.084 11.084 0 0 1 2.52-1.28M28.824 21.253c.91-.267 1.85-.417 2.8-.445v-.302c-.982.029-1.956.184-2.898.46l.098.287zM20.62 31.979c.02.97.168 1.933.44 2.865l.29-.094a10.801 10.801 0 0 1-.425-2.779l-.305.008zM43.325 31.375c-.03-.98-.19-1.95-.477-2.889l-.29.094c.278.908.434 1.849.464 2.797l.303-.002zM38.85 21.743a12.25 12.25 0 0 0-2.868-1.427l-.095.286c.985.34 1.92.807 2.782 1.388l.181-.247zM19.753 31.979c.022 1.058.185 2.11.485 3.125l.29-.093c-.291-.99-.449-2.014-.47-3.045l-.305.013zM25.036 21.785l.18.244a11.954 11.954 0 0 1 2.76-1.4l-.095-.287a12.25 12.25 0 0 0-2.847 1.443M19.753 31.375h.306a11.62 11.62 0 0 1 .497-3.035l-.29-.093a11.911 11.911 0 0 0-.513 3.125M43.412 35.05l.29.094c.305-1.029.47-2.093.492-3.165h-.305a11.655 11.655 0 0 1-.477 3.07M41.632 24.332a12.269 12.269 0 0 0-2.286-2.237l-.18.244a11.97 11.97 0 0 1 2.22 2.17l.246-.177zM24.723 22.384l-.18-.245a12.259 12.259 0 0 0-2.262 2.235l.248.177a11.955 11.955 0 0 1 2.194-2.167M43.478 27.65a12.025 12.025 0 0 0-1.483-2.831l-.248.177a11.717 11.717 0 0 1 1.446 2.745l.285-.09zM32.234 19.646v.302c1.041.022 2.075.179 3.074.467l.095-.287a12.296 12.296 0 0 0-3.16-.482M44.192 31.375a11.91 11.91 0 0 0-.527-3.154l-.29.093c.305.994.475 2.023.506 3.06h.31zM28.558 20.438c.996-.295 2.026-.46 3.065-.49v-.3a12.29 12.29 0 0 0-3.16.504l.095.286zM22.168 25.038l-.247-.177c-.611.87-1.104 1.815-1.465 2.813l.29.093c.35-.967.828-1.885 1.42-2.73M44.3 27.384a12.868 12.868 0 0 0-1.607-3.068l-.248.177c.654.922 1.18 1.926 1.565 2.985l.29-.094zM18.89 31.375h.305c.03-1.12.212-2.229.54-3.3l-.29-.094a12.747 12.747 0 0 0-.556 3.386M21.47 24.535l-.247-.177a12.863 12.863 0 0 0-1.58 3.053l.29.093c.378-1.053.897-2.051 1.543-2.969M18.89 31.979c.02 1.152.198 2.296.526 3.402l.29-.094a12.513 12.513 0 0 1-.511-3.308h-.306zM21.828 24.048a12.836 12.836 0 0 1 2.387-2.344l-.18-.245a13.118 13.118 0 0 0-2.451 2.422l.244.167zM28.29 19.625a12.85 12.85 0 0 1 3.333-.52v-.313c-1.16.03-2.312.215-3.423.547l.09.286zM24.528 21.097l.18.245a12.817 12.817 0 0 1 3.002-1.521l-.095-.287a13.108 13.108 0 0 0-3.087 1.563M35.669 19.316a13.17 13.17 0 0 0-3.424-.521v.302c1.132.026 2.256.2 3.342.52l.082-.301zM36.156 19.795c1.071.368 2.088.876 3.024 1.51l.179-.244a13.103 13.103 0 0 0-3.108-1.563l-.095.297zM45.055 31.375a12.752 12.752 0 0 0-.563-3.418l-.29.094c.333 1.08.517 2.198.548 3.326l.305-.002zM39.854 21.404l-.18.245a12.837 12.837 0 0 1 2.41 2.36l.248-.177a13.138 13.138 0 0 0-2.478-2.425M44.753 31.979a12.493 12.493 0 0 1-.527 3.334l.29.094a12.8 12.8 0 0 0 .526-3.428h-.29zM45.62 31.979c-.022 1.22-.211 2.43-.562 3.6l.29.093c.36-1.2.553-2.442.574-3.693h-.303zM45.922 31.375a13.592 13.592 0 0 0-.606-3.683l-.29.094c.36 1.164.56 2.371.59 3.589h.306zM20.77 24.032l-.248-.177a13.717 13.717 0 0 0-1.71 3.29l.29.094a13.411 13.411 0 0 1 1.668-3.207M18.913 27.812l-.29-.094a13.603 13.603 0 0 0-.598 3.646h.306c.031-1.208.227-2.406.582-3.563M43.03 23.327a13.988 13.988 0 0 0-2.67-2.605l-.18.245c.979.73 1.854 1.587 2.603 2.547l.247-.187zM24.02 20.399l.179.245A13.674 13.674 0 0 1 27.44 19l-.095-.286c-1.18.411-2.299.978-3.326 1.685M45.124 27.121a13.713 13.713 0 0 0-1.73-3.307l-.248.177c.707.994 1.275 2.079 1.688 3.224l.29-.094zM20.883 23.368l.248.177a13.697 13.697 0 0 1 2.573-2.544l-.18-.245a13.995 13.995 0 0 0-2.633 2.604M35.937 18.492a14.04 14.04 0 0 0-3.703-.565v.305c1.223.022 2.436.207 3.609.55l.094-.29zM36.425 18.972c1.157.396 2.254.944 3.263 1.63l.179-.245a13.97 13.97 0 0 0-3.347-1.674l-.095.289zM28.023 18.813a13.724 13.724 0 0 1 3.6-.581v-.294c-1.25.03-2.49.229-3.687.588l.087.287zM18.023 31.979c.022 1.242.213 2.476.569 3.667l.29-.094a13.356 13.356 0 0 1-.554-3.573h-.305zM43.72 22.824a14.862 14.862 0 0 0-2.86-2.805l-.18.245A14.567 14.567 0 0 1 43.484 23l.237-.177zM45.946 26.856a14.574 14.574 0 0 0-1.844-3.545l-.248.177a14.268 14.268 0 0 1 1.81 3.462l.282-.094zM18.089 27.549l-.29-.094a14.438 14.438 0 0 0-.64 3.92h.305c.031-1.299.241-2.587.625-3.829M17.159 31.979c.02 1.331.226 2.654.608 3.93l.29-.094a14.192 14.192 0 0 1-.595-3.839l-.303.003zM20.07 23.53l-.248-.177a14.556 14.556 0 0 0-1.844 3.529l.29.094a14.268 14.268 0 0 1 1.801-3.446M36.203 17.688a14.901 14.901 0 0 0-3.971-.607v.302a14.6 14.6 0 0 1 3.88.589l.091-.284zM23.511 19.709l.18.245a14.546 14.546 0 0 1 3.484-1.766l-.095-.287a14.84 14.84 0 0 0-3.569 1.81M27.754 17.998a14.592 14.592 0 0 1 3.87-.615v-.302a14.9 14.9 0 0 0-3.97.63l.1.287zM20.182 22.866l.248.177a14.56 14.56 0 0 1 2.768-2.727l-.18-.26a14.867 14.867 0 0 0-2.836 2.81M36.69 18.16a14.548 14.548 0 0 1 3.504 1.752l.179-.245a14.842 14.842 0 0 0-3.59-1.797l-.092.29zM46.786 31.375a14.438 14.438 0 0 0-.648-3.946l-.29.094c.388 1.25.601 2.547.632 3.854l.306-.002zM46.483 31.979a14.18 14.18 0 0 1-.603 3.865l.29.094c.387-1.285.594-2.616.616-3.956l-.303-.003zM27.488 17.19a15.467 15.467 0 0 1 4.135-.656v-.308c-1.435.031-2.86.257-4.232.672l.097.292zM36.472 16.872a15.78 15.78 0 0 0-4.238-.648v.302c1.404.022 2.798.235 4.143.633l.095-.287zM44.431 22.321a15.732 15.732 0 0 0-3.052-2.992l-.18.244a15.433 15.433 0 0 1 2.985 2.928l.247-.18zM19.371 23.027l-.247-.177a15.414 15.414 0 0 0-1.957 3.766l.29.094a15.118 15.118 0 0 1 1.912-3.683M17.267 27.283l-.29-.094a15.286 15.286 0 0 0-.682 4.186h.298c.031-1.388.255-2.765.666-4.092M46.77 26.593a15.412 15.412 0 0 0-1.978-3.785l-.247.177a15.117 15.117 0 0 1 1.933 3.701l.292-.093zM19.49 22.363l.247.177a15.422 15.422 0 0 1 2.953-2.925l-.18-.245a15.745 15.745 0 0 0-3.02 2.993M16.292 31.979a15.35 15.35 0 0 0 .65 4.196l.29-.094a15.048 15.048 0 0 1-.64-4.102h-.3zM47.65 31.375a15.284 15.284 0 0 0-.69-4.212l-.29.094a14.99 14.99 0 0 1 .674 4.118h.306zM23.003 19.013l.18.245a15.398 15.398 0 0 1 3.723-1.888l-.094-.287a15.72 15.72 0 0 0-3.809 1.93M36.96 17.344c1.329.452 2.589 1.083 3.745 1.875l.179-.245a15.712 15.712 0 0 0-3.83-1.917l-.095.287zM47.347 31.979a15.032 15.032 0 0 1-.645 4.128l.29.094c.415-1.37.636-2.791.658-4.222h-.303zM18.784 21.86l.247.177a16.292 16.292 0 0 1 3.16-3.125l-.178-.245a16.599 16.599 0 0 0-3.23 3.193M18.67 22.524l-.234-.177a16.265 16.265 0 0 0-2.08 4.006l.29.094a15.964 15.964 0 0 1 2.035-3.92M22.495 18.326l.179.245a16.281 16.281 0 0 1 3.966-2.011l-.094-.287a16.58 16.58 0 0 0-4.051 2.053M15.428 31.979a16.19 16.19 0 0 0 .693 4.462l.29-.094a15.888 15.888 0 0 1-.677-4.368h-.306zM36.738 16.06a16.652 16.652 0 0 0-4.504-.693v.302a16.33 16.33 0 0 1 4.412.675l.092-.284zM41.708 18.88a16.286 16.286 0 0 1 3.176 3.126l.248-.177a16.596 16.596 0 0 0-3.255-3.193l-.169.245zM37.225 16.531a16.273 16.273 0 0 1 3.985 1.998l.18-.245a16.577 16.577 0 0 0-4.072-2.04l-.093.287zM16.445 27.02l-.29-.094a16.13 16.13 0 0 0-.724 4.449h.306a15.84 15.84 0 0 1 .708-4.358M48.516 31.375a16.124 16.124 0 0 0-.732-4.475l-.29.094c.444 1.42.685 2.896.717 4.383l.305-.002zM48.213 31.979a15.886 15.886 0 0 1-.687 4.394l.29.094c.443-1.456.679-2.965.7-4.485l-.303-.003zM27.22 16.37a16.332 16.332 0 0 1 4.403-.698v-.305a16.64 16.64 0 0 0-4.495.716l.092.287zM47.592 26.327a16.264 16.264 0 0 0-2.107-4.021l-.248.177a15.965 15.965 0 0 1 2.057 3.938l.298-.094zM48.416 26.064a17.122 17.122 0 0 0-2.223-4.261l-.247.177a16.816 16.816 0 0 1 2.18 4.167l.29-.083zM49.077 31.979a16.731 16.731 0 0 1-.727 4.657l.29.094c.471-1.542.721-3.14.743-4.751h-.306zM49.38 31.375a16.975 16.975 0 0 0-.774-4.74l-.29.093a16.67 16.67 0 0 1 .759 4.647h.305zM26.954 15.557a17.21 17.21 0 0 1 4.67-.74v-.302a17.513 17.513 0 0 0-4.76.756l.09.286zM42.216 18.188a17.167 17.167 0 0 1 3.369 3.305l.247-.177a17.462 17.462 0 0 0-3.429-3.37l-.187.242zM17.97 22.022l-.248-.177a17.12 17.12 0 0 0-2.201 4.242l.29.094a16.814 16.814 0 0 1 2.159-4.167M15.62 26.754l-.289-.094a16.972 16.972 0 0 0-.766 4.715h.305c.032-1.568.284-3.123.75-4.62M14.562 31.979c.022 1.601.269 3.191.735 4.725l.29-.094a16.742 16.742 0 0 1-.72-4.631h-.305zM18.083 21.358l.248.177a17.157 17.157 0 0 1 3.342-3.303l-.179-.245a17.469 17.469 0 0 0-3.41 3.37M37.007 15.247a17.525 17.525 0 0 0-4.773-.732v.302a17.23 17.23 0 0 1 4.678.717l.095-.287zM37.494 15.719a17.14 17.14 0 0 1 4.214 2.12l.18-.245a17.458 17.458 0 0 0-4.312-2.162l-.082.287zM21.987 17.633l.179.245a17.144 17.144 0 0 1 4.214-2.13l-.095-.287a17.456 17.456 0 0 0-4.298 2.172M50.247 31.375a17.92 17.92 0 0 0-.812-5.006l-.295.096c.496 1.593.762 3.246.79 4.912l.317-.002zM42.725 17.498a18.026 18.026 0 0 1 3.558 3.495l.263-.182a18.406 18.406 0 0 0-3.63-3.564l-.191.25zM37.275 14.424a18.518 18.518 0 0 0-5.043-.766v.303c1.676.022 3.341.277 4.946.757l.097-.294zM49.944 31.979a17.577 17.577 0 0 1-.77 4.923l.29.093c.501-1.626.767-3.314.79-5.013l-.31-.003zM26.685 14.744a18.093 18.093 0 0 1 4.938-.78v-.303c-1.707.027-3.402.29-5.035.781l.097.302zM17.272 21.519l-.263-.185a17.8 17.8 0 0 0-2.323 4.485l.297.097a17.666 17.666 0 0 1 2.284-4.397M14.799 26.491l-.298-.096a17.925 17.925 0 0 0-.79 4.98h.306c.03-1.658.297-3.302.79-4.886M49.251 25.785a17.814 17.814 0 0 0-2.347-4.503l-.263.182a17.659 17.659 0 0 1 2.302 4.415l.308-.094zM37.76 14.903a18.003 18.003 0 0 1 4.477 2.24l.187-.26a18.154 18.154 0 0 0-4.556-2.282l-.108.302zM13.695 31.979c.026 1.692.292 3.372.79 4.99l.29-.093a17.585 17.585 0 0 1-.76-4.897h-.32zM19.05 18.95c-.599.591-1.156 1.221-1.667 1.887l.263.182a18.026 18.026 0 0 1 3.519-3.48l-.185-.26a18.464 18.464 0 0 0-1.93 1.661M21.473 16.93l.187.26a18 18 0 0 1 4.448-2.253l-.097-.294a18.142 18.142 0 0 0-4.538 2.287M13.959 26.223l-.29-.094a18.777 18.777 0 0 0-.843 5.246h.306c.03-1.747.309-3.482.827-5.152M26.416 13.924a19.08 19.08 0 0 1 5.207-.815v-.305c-1.798.03-3.582.31-5.301.83l.094.29zM20.965 16.24l.179.244a18.71 18.71 0 0 1 4.693-2.372l-.095-.287c-1.7.577-3.309 1.39-4.777 2.415M38.031 14.083a18.701 18.701 0 0 1 4.715 2.36l.179-.245a19.009 19.009 0 0 0-4.802-2.394l-.092.279zM50.067 25.525a18.647 18.647 0 0 0-2.467-4.74l-.248.177a18.359 18.359 0 0 1 2.426 4.662l.29-.1zM12.834 31.979a18.73 18.73 0 0 0 .817 5.266l.29-.093a18.43 18.43 0 0 1-.804-5.16l-.303-.013zM16.564 21.011l-.248-.174a18.643 18.643 0 0 0-2.447 4.724l.29.094a18.353 18.353 0 0 1 2.405-4.641M50.808 31.979a18.428 18.428 0 0 1-.812 5.186l.29.093c.527-1.712.805-3.49.827-5.279h-.305zM37.544 13.612a19.396 19.396 0 0 0-5.31-.808v.302c1.767.018 3.522.281 5.215.782l.095-.276zM51.11 31.375a18.764 18.764 0 0 0-.853-5.272l-.29.094a18.47 18.47 0 0 1 .838 5.178h.305zM18.436 18.347a19.265 19.265 0 0 0-1.76 2l.248.177a18.962 18.962 0 0 1 3.727-3.683l-.179-.245c-.719.536-1.399 1.121-2.036 1.75M43.238 16.797a18.974 18.974 0 0 1 3.753 3.685l.248-.177a19.299 19.299 0 0 0-3.82-3.753l-.18.245zM50.892 25.264a19.495 19.495 0 0 0-2.592-4.98l-.247.178a19.197 19.197 0 0 1 2.55 4.894l.289-.092zM17.825 17.74a20.142 20.142 0 0 0-1.843 2.102l.247.177a19.844 19.844 0 0 1 3.914-3.87l-.18-.245a20.234 20.234 0 0 0-2.135 1.836M47.692 19.98l.242-.185a20.172 20.172 0 0 0-4.008-3.933l-.18.245a19.863 19.863 0 0 1 3.951 3.875M43.251 15.75l.18-.245a19.88 19.88 0 0 0-5.042-2.524l-.094.287a19.574 19.574 0 0 1 4.954 2.482M26.148 13.109a19.94 19.94 0 0 1 5.475-.868v-.291c-1.889.03-3.764.323-5.57.872l.095.287zM20.456 15.547l.18.245a19.572 19.572 0 0 1 4.932-2.496l-.094-.286a19.879 19.879 0 0 0-5.02 2.54M11.968 31.979c.02 1.873.31 3.734.861 5.527l.29-.094a19.268 19.268 0 0 1-.846-5.425l-.305-.008zM51.977 31.375a19.62 19.62 0 0 0-.882-5.535l-.29.094c.552 1.763.848 3.595.88 5.44h.292zM15.863 20.508l-.248-.177a19.489 19.489 0 0 0-2.57 4.962l.29.094a19.196 19.196 0 0 1 2.525-4.879M51.671 31.979a19.268 19.268 0 0 1-.84 5.451l.29.094c.555-1.798.848-3.665.87-5.545h-.32zM37.81 12.796a20.26 20.26 0 0 0-5.578-.849v.294c1.858.022 3.704.302 5.483.834l.095-.279zM13.145 25.96l-.29-.094a19.62 19.62 0 0 0-.885 5.509h.306c.031-1.838.325-3.662.872-5.418M15.162 20.003l-.247-.177a20.334 20.334 0 0 0-2.694 5.21l.29.093a20.036 20.036 0 0 1 2.651-5.126M52.84 31.375a20.468 20.468 0 0 0-.934-5.8l-.29.093c.58 1.85.89 3.77.922 5.707h.303zM11.104 31.979c.021 1.962.325 3.91.903 5.787l.29-.093a20.109 20.109 0 0 1-.888-5.689l-.305-.005zM25.882 12.296a20.832 20.832 0 0 1 5.741-.898v-.303c-1.979.03-3.944.337-5.836.912l.095.29zM38.566 12.455c1.85.617 3.6 1.494 5.196 2.605l.18-.245a20.73 20.73 0 0 0-5.281-2.646l-.095.286zM25.208 12.195a20.72 20.72 0 0 0-5.26 2.651l.18.245a20.435 20.435 0 0 1 5.174-2.605l-.094-.291zM51.714 25.004a20.332 20.332 0 0 0-2.726-5.21l-.248.178a20.042 20.042 0 0 1 2.67 5.133l.304-.101zM38.079 11.981a21.144 21.144 0 0 0-5.845-.89v.301c1.95.022 3.885.317 5.75.876l.095-.287zM12.323 25.694l-.29-.094a20.47 20.47 0 0 0-.926 5.775h.305c.032-1.927.34-3.84.914-5.68M44.434 15.169l-.18.245a20.745 20.745 0 0 1 4.136 4.063l.247-.177a21.06 21.06 0 0 0-4.214-4.131M52.538 31.979a20.109 20.109 0 0 1-.896 5.714l.29.094c.583-1.883.89-3.839.911-5.808h-.305zM15.523 19.519a20.714 20.714 0 0 1 4.109-4.063l-.18-.245a21.047 21.047 0 0 0-4.176 4.13l.247.178zM16.593 16.531c-.73.72-1.406 1.491-2.026 2.305l.248.177a21.606 21.606 0 0 1 4.311-4.25l-.179-.245a21.972 21.972 0 0 0-2.354 2.013M19.437 14.164l.18.245a21.288 21.288 0 0 1 5.404-2.74l-.095-.287a21.587 21.587 0 0 0-5.489 2.782M53.705 31.375a21.314 21.314 0 0 0-.977-6.064l-.29.094c.607 1.934.932 3.945.964 5.97h.303zM38.347 11.168a22.02 22.02 0 0 0-6.113-.93v.303c2.04.022 4.067.332 6.019.92l.094-.293zM52.538 24.743a21.18 21.18 0 0 0-2.84-5.47l-.247.178a20.88 20.88 0 0 1 2.795 5.37l.292-.078zM25.613 11.481a21.696 21.696 0 0 1 6.01-.94v-.302a22.01 22.01 0 0 0-6.105.96l.095.282zM10.237 31.979c.022 2.05.34 4.087.946 6.048l.29-.094a20.96 20.96 0 0 1-.938-5.954h-.298zM49.338 18.797a21.929 21.929 0 0 0-4.396-4.32l-.179.244a21.622 21.622 0 0 1 4.327 4.253l.248-.177zM52.464 37.96l.29.093c.61-1.97.932-4.015.953-6.074h-.305a20.957 20.957 0 0 1-.938 5.99M10.24 31.375h.295c.032-2.017.353-4.02.956-5.947l-.29-.093a21.319 21.319 0 0 0-.969 6.037M38.832 11.642a21.29 21.29 0 0 1 5.436 2.725l.18-.245a21.592 21.592 0 0 0-5.532-2.769l-.084.29zM11.689 24.858a20.884 20.884 0 0 1 2.773-5.358l-.24-.177c-1.199 1.67-2.148 3.501-2.818 5.439l.285.096zM36.66.341A32.548 32.548 0 0 0 32.233 0v.302C33.7.315 35.16.427 36.61.638l.05-.297zM17.256 3.863l-.14-.26a31.711 31.711 0 0 0-3.76 2.289l.179.244a31.43 31.43 0 0 1 3.719-2.266M26.664.73l-.047-.298a31.86 31.86 0 0 0-4.299 1.021l.095.287A31.472 31.472 0 0 1 26.664.73M27.267.636c1.443-.21 2.898-.321 4.356-.334V0a32.575 32.575 0 0 0-4.406.339l.05.297zM19.619 2.758c.73-.305 1.469-.582 2.215-.83l-.095-.287c-.755.25-1.505.53-2.25.839-.624.26-1.239.54-1.843.84l.14.261a32.396 32.396 0 0 1 1.82-.83M9.302 9.728l-.216-.213a31.872 31.872 0 0 0-2.862 3.32l.247.177a31.587 31.587 0 0 1 2.831-3.284M13.042 6.483l-.179-.232a32.072 32.072 0 0 0-3.347 2.836l.216.214a31.744 31.744 0 0 1 3.31-2.818M60.286 17.05a31.296 31.296 0 0 0-2.294-3.725l-.247.177a30.963 30.963 0 0 1 2.27 3.688l.271-.14zM63.21 36.144l.3.047c.206-1.395.317-2.8.335-4.21h-.306a31.174 31.174 0 0 1-.332 4.168M54.342 9.087a32.075 32.075 0 0 0-3.347-2.836l-.18.245a31.745 31.745 0 0 1 3.311 2.815l.216-.224zM50.32 6.129l.18-.245a31.836 31.836 0 0 0-3.661-2.238l-.143.26a31.443 31.443 0 0 1 3.627 2.217M46.154 3.646l.14-.26a31.882 31.882 0 0 0-1.936-.886c-.738-.309-1.484-.59-2.24-.84l-.094.286a31.522 31.522 0 0 1 4.13 1.708M63.139 26.483l.3-.047a30.906 30.906 0 0 0-1.02-4.24l-.289.094a30.619 30.619 0 0 1 1 4.196M63.552 31.375h.306a31.528 31.528 0 0 0-.327-4.342l-.3.047a31.25 31.25 0 0 1 .321 4.295M41.54 1.453c-1.4-.437-2.83-.777-4.278-1.018l-.05.297a31.52 31.52 0 0 1 4.23 1.005l.097-.284zM61.948 21.714l.29-.093a32.746 32.746 0 0 0-.89-2.345 30.12 30.12 0 0 0-.79-1.695l-.264.138c.276.55.54 1.109.79 1.675.327.762.621 1.533.883 2.313M57.632 12.835a31.87 31.87 0 0 0-2.85-3.32l-.216.213a31.547 31.547 0 0 1 2.82 3.295l.246-.188zM6.113 13.502l-.248-.177a31.286 31.286 0 0 0-2.291 3.72l.263.137a30.969 30.969 0 0 1 2.268-3.677M2.79 19.401c.244-.57.505-1.13.79-1.682l-.264-.138a30.96 30.96 0 0 0-1.68 4.048l.29.093c.26-.78.555-1.55.882-2.313M.456 36.912c.245 1.435.59 2.852 1.035 4.24l.29-.094a30.795 30.795 0 0 1-1.028-4.18l-.297.034zM.63 27.059l-.3-.047A31.539 31.539 0 0 0 0 31.375h.306c.007-1.445.116-2.888.323-4.319M.722 26.46c.235-1.41.568-2.803.998-4.167l-.29-.094a30.884 30.884 0 0 0-1.006 4.22h.074l.224.04zM.308 31.979H0c.018 1.452.137 2.9.356 4.337l.3-.047a31.148 31.148 0 0 1-.35-4.29M62.075 41.048l.29.094c.455-1.425.807-2.88 1.053-4.355l-.3-.047a30.771 30.771 0 0 1-1.054 4.308"/>
            <path fill="#E62731" d="M38.292 31.55a.702.702 0 0 1-.988 0 .775.775 0 0 1 0-1.043.702.702 0 0 1 .988 0 .775.775 0 0 1 0 1.042zm-1.235-2.084c-.212.08-.406.2-.572.354a1.563 1.563 0 0 0-.503 1.185 1.6 1.6 0 0 0 .148.687c.093.203.228.385.395.534.165.148.358.263.569.336.214.077.442.105.669.084l-1.054 1.529h1.159l1.275-1.87a2.689 2.689 0 0 0 .39-.803 1.735 1.735 0 0 0-.058-1.161 1.576 1.576 0 0 0-.372-.521 1.747 1.747 0 0 0-.574-.354 2.17 2.17 0 0 0-1.48 0h.008zm-2.666-.092l-1.274.878.54.841.503-.343v3.438h1.132v-4.806l-.9-.008zm-5.583 3.444c.096.282.247.543.445.768.184.206.41.37.664.482a2.06 2.06 0 0 0 1.63 0c.254-.112.48-.276.664-.482.198-.225.35-.486.447-.768a3.332 3.332 0 0 0 0-2.055 2.273 2.273 0 0 0-.445-.769 1.93 1.93 0 0 0-.663-.482 2.06 2.06 0 0 0-1.63 0 1.93 1.93 0 0 0-.664.482 2.273 2.273 0 0 0-.445.769 3.335 3.335 0 0 0 0 2.055h-.003zm2.797-.425a1.385 1.385 0 0 1-.213.432.827.827 0 0 1-1.343 0 1.385 1.385 0 0 1-.214-.432 2.031 2.031 0 0 1-.082-.604 1.995 1.995 0 0 1 .082-.6 1.39 1.39 0 0 1 .213-.426.874.874 0 0 1 .309-.26.798.798 0 0 1 .726 0 .877.877 0 0 1 .309.26c.095.129.167.273.213.427.058.194.085.396.082.599.003.204-.025.408-.082.604zm-5.21.735l.927-.956c.143-.125.272-.263.388-.412.102-.137.19-.285.263-.44a1.19 1.19 0 0 0 .119-.52 1.49 1.49 0 0 0-.111-.582 1.261 1.261 0 0 0-.332-.46 1.542 1.542 0 0 0-.527-.303 2.243 2.243 0 0 0-.719-.107c-.24-.003-.479.036-.706.115-.195.07-.374.18-.526.32a1.432 1.432 0 0 0-.34.485c-.08.192-.121.398-.119.607l1.083.075a.554.554 0 0 1 .162-.452.567.567 0 0 1 .457-.16c.146-.01.29.038.4.133a.479.479 0 0 1 .14.362.62.62 0 0 1-.066.26c-.04.087-.091.17-.15.245a2.33 2.33 0 0 1-.208.26l-1.775 1.824v.763h3.36v-1.07l-1.72.013z"/>
            <path fill="#1F5BA4" d="M41.15 46.268v3.386h.705l1.386-2.016v2.016h.79v-3.386h-.706l-1.385 2.016v-2.016h-.79zm-3.588 0v3.386h.706l1.386-2.016v2.016h.79v-3.386h-.706l-1.385 2.016v-2.016h-.79zm-2.37 2.589a.882.882 0 0 1-.284-.201.949.949 0 0 1-.193-.307 1.095 1.095 0 0 1 0-.782.885.885 0 0 1 .477-.508.846.846 0 0 1 .611-.028c.078.026.15.064.216.112.06.044.112.1.153.161.04.06.07.125.092.193l.816-.055a1.623 1.623 0 0 0-.529-.846 1.63 1.63 0 0 0-.456-.26 1.55 1.55 0 0 0-.563-.1 1.643 1.643 0 0 0-.656.133c-.198.086-.377.21-.527.365a1.754 1.754 0 0 0 0 2.443c.15.155.329.278.527.365.392.163.832.174 1.233.03a1.526 1.526 0 0 0 .8-.646c.089-.142.155-.297.195-.46l-.816-.055a.719.719 0 0 1-.248.357.796.796 0 0 1-.513.154.846.846 0 0 1-.348-.073l.013.008zm-3.492-.008a.882.882 0 0 1-.285-.2.949.949 0 0 1-.192-.308 1.095 1.095 0 0 1 0-.781.885.885 0 0 1 .477-.508.846.846 0 0 1 .61-.029c.078.026.151.064.217.112.06.045.111.1.153.161.039.06.07.125.092.193l.816-.055a1.623 1.623 0 0 0-.53-.846 1.63 1.63 0 0 0-.455-.26 1.55 1.55 0 0 0-.563-.1 1.643 1.643 0 0 0-.656.133c-.198.087-.377.21-.527.365a1.754 1.754 0 0 0 0 2.443 1.64 1.64 0 0 0 1.183.497 1.625 1.625 0 0 0 1.042-.359c.134-.109.248-.239.338-.385.088-.143.154-.299.194-.461l-.813-.055a.721.721 0 0 1-.248.357.796.796 0 0 1-.513.153.846.846 0 0 1-.348-.072l.008.005zm-1.804-1.568a1.759 1.759 0 0 0-.361-.547 1.646 1.646 0 0 0-.527-.365 1.692 1.692 0 0 0-1.317 0c-.198.086-.377.21-.527.365a1.756 1.756 0 0 0-.36.547 1.784 1.784 0 0 0 0 1.352c.085.202.207.386.36.544.15.155.33.278.527.365.42.177.897.177 1.317 0 .198-.087.377-.21.527-.365a1.77 1.77 0 0 0 .36-.544 1.784 1.784 0 0 0 0-1.352zm-.725 1.06a.952.952 0 0 1-.192.307.87.87 0 0 1-1.264 0 .946.946 0 0 1-.192-.307 1.095 1.095 0 0 1 0-.781.887.887 0 0 1 .477-.508.87.87 0 0 1 .98.2c.082.09.148.194.191.308.096.251.096.53 0 .78zm-4.603-.521v-.807h.542a.43.43 0 0 1 .31.12.381.381 0 0 1 0 .565.43.43 0 0 1-.31.12l-.542.002zm-.79-1.563v3.386h.79v-1.076h.542c.168.002.334-.028.49-.088a1.16 1.16 0 0 0 .385-.248c.11-.104.2-.229.263-.367a1.15 1.15 0 0 0 0-.904 1.162 1.162 0 0 0-.263-.367 1.163 1.163 0 0 0-.385-.247 1.311 1.311 0 0 0-.49-.089h-1.333zm-3.58 2.753v-.805h.68a.43.43 0 0 1 .31.12.381.381 0 0 1 0 .565.43.43 0 0 1-.31.12h-.68zm0-2.083h.609c.098-.001.192.036.263.104a.33.33 0 0 1 0 .49.376.376 0 0 1-.263.104h-.609v-.698zm1.533.781a.81.81 0 0 0 .142-.198.624.624 0 0 0 .066-.297.851.851 0 0 0-.079-.362.954.954 0 0 0-.219-.3 1.024 1.024 0 0 0-.334-.203 1.189 1.189 0 0 0-.43-.075h-1.466v3.386h1.548a1.164 1.164 0 0 0 .8-.297.943.943 0 0 0 .314-.7.774.774 0 0 0-.084-.376 1.014 1.014 0 0 0-.45-.43.89.89 0 0 0 .2-.15l-.008.002zM45.374 43.634l.219.646h.814l-1.222-3.386h-.817l-1.222 3.386h.816l.22-.646h1.192zm-.977-.659l.38-1.127.379 1.127h-.759zm-2.99-.52v-.808h.543a.43.43 0 0 1 .311.12.384.384 0 0 1 0 .565.43.43 0 0 1-.31.12l-.543.003zm-.79-1.563v3.386h.79v-1.076h.543c.168.002.334-.028.49-.088.145-.057.276-.14.387-.248.111-.104.2-.229.264-.367a1.15 1.15 0 0 0 0-.904 1.167 1.167 0 0 0-.264-.367 1.166 1.166 0 0 0-.387-.248 1.309 1.309 0 0 0-.49-.088h-1.332zm-1.466.753h.977v-.753h-2.742v.753h.977v2.633h.79l-.002-2.633zm-2.718 1.987l.216.646h.816l-1.222-3.386h-.814l-1.222 3.386h.822l.218-.646h1.186zm-.978-.657l.38-1.127.379 1.127h-.759zm-4.113 1.303h2.499v-.753h-1.71v-.591h1.523v-.74h-1.522v-.547h1.656v-.755h-2.446v3.386zm-1.523-2.633h.996v-.753h-2.75v.753h.977v2.633h.79l-.013-2.633zm-4.32 1.88h-1.237a.456.456 0 0 0 .113-.107.888.888 0 0 0 .09-.164.999.999 0 0 0 .068-.26l.164-1.344h.813l-.01 1.875zm.791 0v-2.633h-2.273l-.245 2.083a.775.775 0 0 1-.079.26.527.527 0 0 1-.274.27l-.218.002v1.396h.79v-.625h1.901v.646h.79v-1.396l-.392-.003zm-3.34-1.615a1.759 1.759 0 0 0-.36-.547 1.649 1.649 0 0 0-.527-.364 1.692 1.692 0 0 0-1.317 0c-.198.086-.377.21-.527.364a1.756 1.756 0 0 0-.36 1.899c.085.202.207.387.36.544.15.155.329.279.527.365.42.177.896.177 1.317 0 .198-.086.377-.21.527-.365.153-.157.275-.342.36-.544a1.781 1.781 0 0 0 0-1.352zm-.716 1.065a.885.885 0 0 1-.477.508.87.87 0 0 1-.98-.2.949.949 0 0 1-.192-.308 1.095 1.095 0 0 1 0-.78.887.887 0 0 1 .477-.508.87.87 0 0 1 .98.2c.083.09.148.194.192.307.096.252.096.53 0 .781zm-4.851 1.303h.79v-2.63h1.44v-.756h-2.23v3.386z"/>
        </g>
    </symbol>
</svg>