<svg id="Слой_1" data-name="Слой 1" xmlns="http://www.w3.org/2000/svg">
  <symbol id="logo" viewBox="0 0 119.53 142.53">
    <defs></defs><title>t-o_logo___</title><path class="cls-1" d="M74,20.86h.59a1.86,1.86,0,0,1,1.79.88A6,6,0,0,1,77,24.87a8.92,8.92,0,0,1-.62,3.73,1.86,1.86,0,0,1-1.82.85H74Zm.21,10.83h.55a3.25,3.25,0,0,0,3-1.56,10.39,10.39,0,0,0,1.13-5.26,8.41,8.41,0,0,0-1.09-4.72,3.68,3.68,0,0,0-3.24-1.58H72.18V41h2Z" transform="translate(0 -0.47)"/><polygon class="cls-1" points="21.16 38.63 18.47 38.63 18.47 18.14 16.6 18.14 16.58 40.63 21.16 40.63 21.16 38.63"/><polygon class="cls-1" points="29.84 40.62 31.67 40.62 31.66 30.16 34.01 18.14 32.3 18.14 30.81 26.27 29.16 18.14 27.44 18.14 29.85 30.21 29.84 40.62"/><path class="cls-1" d="M102.29,41.15a3.48,3.48,0,0,0,1.46.25,2,2,0,0,0,1-.29V38.26c-.52.6-.52.59-1,.72a1.72,1.72,0,0,1-1.35-.2A4.49,4.49,0,0,1,100.77,36a25.85,25.85,0,0,1-.38-6.38,23.72,23.72,0,0,1,.57-6.38c.48-1.65.93-2.37,1.67-2.55a1.67,1.67,0,0,1,1.2.14,2.68,2.68,0,0,1,.86.51l.11-2.4a3.61,3.61,0,0,0-.89-.46,2.34,2.34,0,0,0-1.34-.11c-1,.13-2.28,1-2.9,3.11a29.87,29.87,0,0,0-1,8.24,29.69,29.69,0,0,0,.85,8.13,4.55,4.55,0,0,0,2.78,3.25" transform="translate(0 -0.47)"/><polygon class="cls-1" points="43.09 29.81 45.19 40.77 45.29 40.77 47.46 29.9 48.88 40.69 50.48 40.69 47.7 18.14 47.69 18.14 45.21 33.82 42.86 18.14 42.8 18.14 40.11 40.69 41.87 40.7 43.09 29.81"/><path class="cls-1" d="M115.74,27.65a10.35,10.35,0,0,1-1.09-3.15,4.2,4.2,0,0,1,3.51-4l-.9-2.23a6.53,6.53,0,0,0-4.8,6.47,6.86,6.86,0,0,0,.76,2.87c1,2.34,3.35,5.35,3.31,7.58,0,2.06-1.42,3.4-3.25,4.28l.78,2.13c3.15-1.66,5.43-4.09,4.55-7.9-.34-1.58-1.73-3.64-2.87-6" transform="translate(0 -0.47)"/><path class="cls-1" d="M4.51,39.19c-.79,0-1.4-1.84-1.67-3.52a39,39,0,0,1-.4-6.18,28.62,28.62,0,0,1,.48-6.12c.38-1.75.71-2.59,1.57-2.59s1.17.94,1.65,2.66a25,25,0,0,1,.49,6.24,40.29,40.29,0,0,1-.49,6.25c-.25,1.7-.83,3.26-1.64,3.26m2.82-1a28.71,28.71,0,0,0,.95-8.46,27.11,27.11,0,0,0-.82-8.15c-.73-2.18-1.89-3.17-3-3.17s-2.15,1-2.88,3.17a26.73,26.73,0,0,0-.88,8.15,28.35,28.35,0,0,0,1.1,8.45c.74,2.2,1.63,3.3,2.67,3.3s2.12-1.1,2.83-3.29" transform="translate(0 -0.47)"/><rect class="cls-1" x="86.9" y="18.09" width="2.12" height="22.57"/><rect class="cls-1" y="121.26" width="119.53" height="2"/><polygon class="cls-1" points="59.65 110.79 61.7 110.79 61.7 2.22 69.9 2.22 69.9 0 51.45 0 51.45 2.22 59.65 2.22 59.65 110.79"/><path class="cls-1" d="M3.72,130.71l0,0v.83l0,0H2.4v3.56l0,0H1.54l0,0v-3.56H.19l0,0v-.83l0,0Z" transform="translate(0 -0.47)"/><path class="cls-1" d="M8,130.71l0,0v.83l0,0H5.87v.8H7.44l0,0v.83l0,0H5.87v1H8.08l0,0v.83l0,0H5l0,0v-4.43l0,0Z" transform="translate(0 -0.47)"/><path class="cls-1" d="M11.65,130.71l0,0,1.7,4.43,0,0h-1l0,0-.32-.9H10.4l-.32.9,0,0H9l0,0,1.7-4.43,0,0Zm-1,2.66h1l-.51-1.51Z" transform="translate(0 -0.47)"/><path class="cls-1" d="M17.07,130.71l0,0v.83l0,0H15.76v3.56l0,0h-.83l0,0v-3.56H13.54l0,0v-.83l0,0Z" transform="translate(0 -0.47)"/><path class="cls-1" d="M19.74,130.71a1.45,1.45,0,1,1,0,2.89h-.51v1.57l0,0h-.83l0,0v-4.43l0,0Zm-.51,2h.45c.42,0,.67-.16.67-.55s-.26-.55-.67-.55h-.45Z" transform="translate(0 -0.47)"/><path class="cls-1" d="M24.23,130.71l0,0,1.7,4.43,0,0h-1l0,0-.32-.9H23l-.32.9,0,0h-1l0,0,1.7-4.43,0,0Zm-1,2.66h1l-.51-1.51Z" transform="translate(0 -0.47)"/><path class="cls-1" d="M31.13,130.71l0,0v4.43l0,0H30.3l0,0v-3.56H28.85L28.44,134a1.43,1.43,0,0,1-1.6,1.25l0,0v-.79l0,0a.73.73,0,0,0,.77-.61l.48-3.08.06,0Z" transform="translate(0 -0.47)"/><path class="cls-1" d="M33.44,130.71l0,0v1.67h.74a1.35,1.35,0,0,1,1.51,1.38,1.37,1.37,0,0,1-1.51,1.41h-1.6l0,0v-4.43l0,0Zm0,3.59h.67c.39,0,.61-.13.61-.51s-.22-.48-.61-.48h-.67Z" transform="translate(0 -0.47)"/><path class="cls-1" d="M37.81,130.71l0,0v1.67H39.9v-1.67l0,0h.83l0,0v4.43l0,0h-.83l0,0v-1.86H37.84v1.86l0,0H37l0,0v-4.43l0,0Z" transform="translate(0 -0.47)"/><path class="cls-1" d="M44.52,130.71l0,0,1.7,4.43,0,0h-1l0,0-.32-.9h-1.6l-.32.9,0,0h-1l0,0,1.7-4.43,0,0Zm-1,2.66h1l-.51-1.51Z" transform="translate(0 -0.47)"/><path class="cls-1" d="M50.68,130.74v4.43l0,0h-.83l0,0V133.4h-.32l-1.35,1.76,0,0h-1l0,0,1.54-2.05a1.05,1.05,0,0,1-.61-1.06,1.34,1.34,0,0,1,1.44-1.35h1.25Zm-1.22.86c-.35,0-.55.13-.55.45s.19.45.55.45h.32v-.9Z" transform="translate(0 -0.47)"/><path class="cls-1" d="M59,133a2.37,2.37,0,1,1-2.37-2.34A2.34,2.34,0,0,1,59,133Zm-3.75,0a1.38,1.38,0,1,0,1.38-1.41A1.38,1.38,0,0,0,55.27,133Z" transform="translate(0 -0.47)"/><path class="cls-1" d="M64.13,130.71l0,0v4.43l0,0H63.3l0,0v-3.56H61.85L61.44,134a1.44,1.44,0,0,1-1.6,1.25l0,0v-.79l0,0a.73.73,0,0,0,.77-.61l.48-3.08.06,0Z" transform="translate(0 -0.47)"/><path class="cls-1" d="M66.44,130.71l0,0v2.92l2.25-2.92.06,0h.87l0,0v4.43l0,0h-.83l0,0v-2.92l-2.25,2.92-.06,0h-.87l0,0v-4.43l0,0Z" transform="translate(0 -0.47)"/><path class="cls-1" d="M72,130.71l.06,0,1.32,1.64,1.31-1.64.06,0h.83l0,0v4.43l0,0h-.83l0,0v-3.08l-1.31,1.6h-.06L72,132.09v3.08l0,0h-.83l0,0v-4.43l0,0Z" transform="translate(0 -0.47)"/><path class="cls-1" d="M80.7,130.71l0,0v4.43l0,0h-.83l0,0v-3.56H77.9v3.56l0,0H77l0,0v-4.43l0,0Z" transform="translate(0 -0.47)"/><path class="cls-1" d="M83,130.71l0,0v2.92l2.25-2.92.06,0h.87l0,0v4.43l0,0h-.83l0,0v-2.92l-2.25,2.92-.06,0h-.87l0,0v-4.43l0,0Z" transform="translate(0 -0.47)"/><path class="cls-1" d="M90,130.71l0,0,1.7,4.43,0,0h-1l0,0-.32-.9h-1.6l-.32.9,0,0h-1l0,0,1.7-4.43,0,0Zm-1,2.66h1l-.51-1.51Z" transform="translate(0 -0.47)"/><path class="cls-1" d="M96.81,130.71l0,0v3.56h.48l0,0v2l0,0h-.83l0,0V135.2H93.57v1.12l0,0H92.7l0,0v-2l0,0h.55a2,2,0,0,0,.14-.45l.31-3.11,0,0ZM94.29,134c0,.08,0,.14,0,.3h1.7v-2.7H94.5Z" transform="translate(0 -0.47)"/><path class="cls-1" d="M101,130.71l0,0,1.7,4.43,0,0h-1l0,0-.32-.9H99.7l-.32.9,0,0h-1l0,0,1.7-4.43,0,0Zm-1,2.66h1l-.51-1.51Z" transform="translate(0 -0.47)"/><path class="cls-1" d="M105.77,131.16a1.54,1.54,0,0,1,1.15-.55,1.35,1.35,0,0,1,1.41,1.35,2.93,2.93,0,0,1-.55,1.44l-.51.9h1.09l0,0v.83l0,0h-2.6l0,0,1.19-2.05a2.51,2.51,0,0,0,.45-1.16.45.45,0,0,0-.45-.45c-.51,0-.9.51-1.12.87l0,0Z" transform="translate(0 -0.47)"/><path class="cls-1" d="M112.89,133c0,1.3-.65,2.34-1.67,2.34s-1.67-1-1.67-2.34.65-2.34,1.67-2.34S112.89,131.66,112.89,133Zm-2.37,0c0,.94.29,1.44.71,1.44s.71-.51.71-1.44-.29-1.44-.71-1.44S110.52,132,110.52,133Z" transform="translate(0 -0.47)"/><path class="cls-1" d="M115.08,130.71v4.46l0,0h-.83l0,0v-3.73l0-.06.83-.69Z" transform="translate(0 -0.47)"/><path class="cls-1" d="M116.57,135.17a5.63,5.63,0,0,0,1.57-1.73,1.63,1.63,0,0,1-.43.06,1.42,1.42,0,0,1-1.41-1.41,1.45,1.45,0,0,1,1.48-1.48,1.65,1.65,0,0,1,1.6,1.83,4,4,0,0,1-1.6,2.76H116.6Zm1.2-3.66a.54.54,0,0,0-.51.58.51.51,0,0,0,.51.51.88.88,0,0,0,.67-.29C118.41,131.74,118.09,131.51,117.77,131.51Z" transform="translate(0 -0.47)"/><path class="cls-1" d="M30,139.76a2.2,2.2,0,0,0-1.51-.51,1.41,1.41,0,0,0,0,2.82,2.21,2.21,0,0,0,1.51-.51l0,0v1a2.55,2.55,0,0,1-1.54.42,2.34,2.34,0,1,1,0-4.68,2.54,2.54,0,0,1,1.54.42v1Z" transform="translate(0 -0.47)"/><path class="cls-1" d="M33.77,138.41l0,0,1.7,4.43,0,0h-1l0,0-.32-.9h-1.6l-.32.9,0,0h-1l0,0,1.7-4.43,0,0Zm-1,2.66h1l-.51-1.51Z" transform="translate(0 -0.47)"/><path class="cls-1" d="M37.46,138.41l0,0v1.67h2.05v-1.67l0,0h.83l0,0v4.43l0,0h-.83l0,0V141H37.49v1.86l0,0h-.83l0,0v-4.43l0,0Z" transform="translate(0 -0.47)"/><path class="cls-1" d="M42.72,138.41l0,0V140h.39l1.41-1.54.06,0h1l0,0-1.76,1.92,1.89,2.5,0,0h-1l-.06,0-1.54-2h-.39v2l0,0h-.83l0,0v-4.43l0,0Z" transform="translate(0 -0.47)"/><path class="cls-1" d="M50,138.41l0,0v.83l0,0H48.66v3.56l0,0h-.83l0,0v-3.56H46.45l0,0v-.83l0,0Z" transform="translate(0 -0.47)"/><path class="cls-1" d="M53.12,140.95l0,0v.83l0,0h-2l0,0V141l0,0Z" transform="translate(0 -0.47)"/><path class="cls-1" d="M58.13,138.41l0,0v4.43l0,0h-.83l0,0v-3.56H55.34v3.56l0,0h-.83l0,0v-4.43l0,0Z" transform="translate(0 -0.47)"/><path class="cls-1" d="M62.62,138.41l0,0v.83l0,0H60.47v.8H62l0,0V141l0,0H60.47v1h2.21l0,0v.83l0,0H59.61l0,0v-4.43l0,0Z" transform="translate(0 -0.47)"/><path class="cls-1" d="M67.31,138.41l0,0v.83l0,0H66v3.56l0,0h-.83l0,0v-3.56H63.78l0,0v-.83l0,0Z" transform="translate(0 -0.47)"/><path class="cls-1" d="M71.61,138.41l0,0v.83l0,0H69.46v.8H71l0,0V141l0,0H69.46v1h2.21l0,0v.83l0,0H68.6l0,0v-4.43l0,0Z" transform="translate(0 -0.47)"/><path class="cls-1" d="M74.34,138.41a1.45,1.45,0,1,1,0,2.89h-.51v1.57l0,0H73l0,0v-4.43l0,0Zm-.51,2h.45c.42,0,.67-.16.67-.55s-.26-.55-.67-.55h-.45Z" transform="translate(0 -0.47)"/><path class="cls-1" d="M79.89,138.41l0,0v.83l0,0H78.06v.8h.61a1.35,1.35,0,0,1,1.51,1.38,1.37,1.37,0,0,1-1.51,1.41H77.2l0,0v-4.43l0,0ZM78.06,142h.55c.39,0,.61-.13.61-.51S79,141,78.61,141h-.55Z" transform="translate(0 -0.47)"/><path class="cls-1" d="M81.88,138.41l.06,0,1.12,2.5,1.12-2.5.06,0h.9l0,0-1.8,3.72a1.72,1.72,0,0,1-1.73.83l0,0v-.76l0,0a1.12,1.12,0,0,0,.88-.26l.05-.06L81,138.45l0,0Z" transform="translate(0 -0.47)"/><path class="cls-1" d="M87.69,138.41a1.45,1.45,0,1,1,0,2.89h-.51v1.57l0,0h-.83l0,0v-4.43l0,0Zm-.51,2h.45c.42,0,.67-.16.67-.55s-.26-.55-.67-.55h-.45Z" transform="translate(0 -0.47)"/><path class="cls-1" d="M93.5,138.41l0,0v.83l0,0H91.42v3.56l0,0h-.83l0,0v-4.43l0,0Z" transform="translate(0 -0.47)"/>
  </symbol>
</svg>