<svg xmlns="http://www.w3.org/2000/svg" xmlns:xlink="http://www.w3.org/1999/xlink"><symbol id="arrow-back" viewBox="0 0 24 15">
    <!-- Generator: sketchtool 49.3 (51167) - http://www.bohemiancoding.com/sketch -->
    <title>6838BA6B-54E0-4B83-BFF7-01E13C05BE29</title>
    <desc>Created with sketchtool.</desc>
    
    <g id="Page-1" stroke="none" stroke-width="1" fill="none" fill-rule="evenodd">
        <g id="17m_t-olympics_one-people" transform="translate(-20.000000, -186.000000)" fill="#BBAE92">
            <path d="M41.4020698,194.131728 L20,194.131728 L20,192.717514 L41.2513122,192.717514 L35.5636194,187.029822 L36.5636194,186.029822 L44.0039762,193.470178 L43.9741546,193.5 L44.0039762,193.529822 L36.5636194,200.970178 L35.5636194,199.970178 L41.4020698,194.131728 Z" id="Combined-Shape-Copy" transform="translate(32.000000, 193.500000) scale(-1, 1) translate(-32.000000, -193.500000) "/>
        </g>
    </g>
</symbol><symbol id="greenlabs" viewBox="0 0 70 11">
    <path fill-rule="nonzero" d="M5.508 6.816h2.353v1.482c-.592.415-1.351.622-2.2.622-1.882 0-3.218-1.392-3.218-3.29 0-1.792 1.35-3.26 3.05-3.26 1.23 0 1.958.386 2.777 1.053L9.742 1.69C8.634.771 7.481.267 5.57.267 2.352.267 0 2.682 0 5.63c0 3.097 2.276 5.364 5.584 5.364 1.943 0 3.445-.741 4.538-1.645V4.846H5.508v1.97zm8.164-2.341v-1.6h-2.306v7.942h2.306V7.883c0-1.897.941-2.8 2.474-2.8h.121V2.725c-1.365-.059-2.124.653-2.595 1.749zm6.677-1.749c-2.367 0-4.02 1.867-4.02 4.135 0 2.46 1.805 4.134 4.248 4.134 1.472 0 2.564-.563 3.323-1.482l-1.32-1.141c-.637.578-1.199.815-1.973.815-1.032 0-1.76-.533-1.988-1.556h5.66c.015-.207.03-.415.03-.593 0-2.252-1.243-4.312-3.96-4.312zm-1.76 3.498c.182-1.023.804-1.69 1.76-1.69.971 0 1.578.682 1.715 1.69h-3.475zm10.303-3.498c-2.367 0-4.02 1.867-4.02 4.135 0 2.46 1.805 4.134 4.248 4.134 1.472 0 2.564-.563 3.323-1.482l-1.32-1.141c-.637.578-1.199.815-1.973.815-1.031 0-1.76-.533-1.987-1.556h5.66c.015-.207.03-.415.03-.593 0-2.252-1.244-4.312-3.96-4.312zm-1.76 3.498c.182-1.023.804-1.69 1.76-1.69.971 0 1.579.682 1.715 1.69h-3.475zm11.366-3.498c-1.168 0-1.851.608-2.382 1.275V2.875h-2.307v7.942h2.307v-4.43c0-1.067.561-1.616 1.441-1.616s1.396.549 1.396 1.616v4.43h2.307V5.675c0-1.822-1.017-2.949-2.762-2.949zm4.112 8.09h2.307V0H42.61v10.817zm7.086-8.03c-1.38 0-2.26.252-3.156.637l.577 1.719c.743-.267 1.365-.43 2.246-.43 1.153 0 1.745.519 1.745 1.452v.134a5.907 5.907 0 0 0-1.988-.327c-1.928 0-3.278.8-3.278 2.534 0 1.6 1.26 2.46 2.792 2.46 1.123 0 1.897-.4 2.458-1.008v.86h2.231V6.208c0-1.066-.273-1.94-.88-2.533-.577-.563-1.487-.89-2.747-.89zm1.442 5.23c0 .816-.728 1.393-1.806 1.393-.744 0-1.26-.355-1.26-.963 0-.74.608-1.126 1.594-1.126.562 0 1.077.119 1.472.296v.4zm8.255-5.29c-1.199 0-1.973.549-2.534 1.29V0h-2.307v10.817h2.307V9.78c.546.637 1.305 1.185 2.534 1.185 1.927 0 3.703-1.452 3.703-4.104 0-2.682-1.806-4.135-3.703-4.135zM58.8 9.054c-1.077 0-1.972-.875-1.972-2.193 0-1.349.895-2.223 1.972-2.223 1.078 0 1.988.874 1.988 2.193 0 1.363-.91 2.223-1.988 2.223zm8.74-3.038c-.88-.296-1.653-.504-1.653-.948 0-.341.288-.578.85-.578.591 0 1.395.281 2.2.74l.88-1.555a5.728 5.728 0 0 0-3.035-.919c-1.64 0-2.974.904-2.974 2.52 0 1.57 1.29 2.088 2.428 2.414.895.267 1.684.43 1.684.92 0 .384-.303.622-.97.622-.76 0-1.686-.327-2.565-.949l-.987 1.482a5.786 5.786 0 0 0 3.49 1.2c1.76 0 3.111-.8 3.111-2.563 0-1.482-1.32-2.015-2.458-2.386z"/>
</symbol><symbol id="icon-arrow-down" viewBox="0 0 10 6">
    <path fill="#BBAE92" fill-rule="evenodd" d="M4.293 4.536L.757 1l.707-.707L5 3.828 8.536.293 9.243 1 5 5.243l-.707-.707z"/>
</symbol><symbol id="icon-burger" viewBox="0 0 30 22">
    <path fill-rule="evenodd" d="M0 0h30v2H0V0zm0 10h30v2H0v-2zm0 10h30v2H0v-2z"/>
</symbol><symbol id="icon-close" viewBox="0 0 9 9">
    <path fill-rule="evenodd" d="M4.5 3.793L8.036.257l.707.707L5.207 4.5l3.536 3.536-.707.707L4.5 5.207.964 8.743l-.707-.707L3.793 4.5.257.964.964.257 4.5 3.793z"/>
</symbol><symbol id="icon-facebook" viewBox="0 0 8 16">
    <path fill-rule="evenodd" stroke="none" d="M8 5.736H5.138V4.302s-.147-1.359.734-1.359H7.78V0H4.55S1.835 0 1.835 2.792v2.944H0v2.34h1.835V16h3.303V8.075h2.128L8 5.735z"/>
</symbol><symbol id="icon-grid" viewBox="0 0 26 19">
    <path fill-rule="evenodd" d="M0 0h26v3H0V0zm0 8h26v3H0V8zm0 8h26v3H0v-3z"/>
</symbol><symbol id="icon-insta" viewBox="0 0 19 19">
    <path fill-rule="nonzero" stroke="none" d="M6.334 9.5a3.167 3.167 0 1 1 6.333 0 3.167 3.167 0 0 1-6.333 0m-1.712 0a4.878 4.878 0 1 0 9.756 0 4.878 4.878 0 0 0-9.756 0m8.81-5.072a1.14 1.14 0 1 0 2.28 0 1.14 1.14 0 0 0-2.28 0m-7.77 12.805c-.926-.042-1.43-.197-1.764-.327a2.955 2.955 0 0 1-1.093-.71 2.936 2.936 0 0 1-.71-1.093c-.131-.334-.285-.838-.328-1.764-.046-1.001-.055-1.302-.055-3.839s.01-2.837.055-3.84c.043-.925.198-1.428.327-1.763.173-.444.379-.76.71-1.093a2.933 2.933 0 0 1 1.094-.71c.334-.131.838-.285 1.764-.328 1.001-.046 1.302-.055 3.838-.055 2.537 0 2.837.01 3.84.055.926.043 1.429.198 1.764.327.443.172.76.379 1.093.711.332.332.538.65.71 1.093.13.334.285.838.327 1.764.046 1.002.055 1.302.055 3.839 0 2.536-.009 2.837-.055 3.84-.042.925-.197 1.429-.327 1.763-.172.444-.378.76-.71 1.092-.333.333-.65.538-1.093.71-.335.131-.838.286-1.764.328-1.002.046-1.303.055-3.84.055-2.536 0-2.837-.01-3.838-.055M5.584.058C4.572.104 3.88.264 3.278.498a4.662 4.662 0 0 0-1.683 1.097A4.649 4.649 0 0 0 .499 3.277C.264 3.881.104 4.572.058 5.583.01 6.596 0 6.92 0 9.5s.01 2.904.058 3.917c.046 1.011.206 1.702.44 2.306a4.645 4.645 0 0 0 1.097 1.682 4.659 4.659 0 0 0 1.683 1.096c.604.235 1.294.395 2.306.441C6.597 18.988 6.92 19 9.5 19c2.581 0 2.904-.01 3.917-.058 1.012-.046 1.702-.206 2.306-.44a4.672 4.672 0 0 0 1.683-1.097 4.665 4.665 0 0 0 1.096-1.682c.235-.604.396-1.295.441-2.306C18.99 12.403 19 12.08 19 9.5s-.01-2.904-.057-3.917c-.046-1.011-.206-1.702-.441-2.306a4.672 4.672 0 0 0-1.096-1.682A4.66 4.66 0 0 0 15.724.499c-.605-.235-1.295-.396-2.306-.441C12.405.012 12.081 0 9.501 0S6.597.01 5.584.058"/>
</symbol><symbol id="icon-search" viewBox="0 0 20 20">
    <path fill-rule="nonzero" d="M14.943 13.562a8.373 8.373 0 0 0 1.8-5.183C16.743 3.767 12.984 0 8.36 0 3.736 0 0 3.767 0 8.379s3.759 8.379 8.36 8.379c1.845 0 3.69-.64 5.17-1.804L18.566 20 20 18.562l-5.057-5zm-6.583 1.21c-3.485 0-6.333-2.854-6.333-6.347 0-3.493 2.848-6.347 6.333-6.347 3.485 0 6.332 2.854 6.332 6.347 0 3.493-2.847 6.347-6.332 6.347z"/>
</symbol><symbol id="icon-star" viewBox="0 0 21 20">
    <path fill-rule="evenodd" stroke-width="2" d="M10.49 14.246c-1.275.77-2.55 1.52-3.827 2.271L5.861 17l.22-.912c.327-1.412.674-2.843 1.002-4.273-1.13-.948-2.242-1.913-3.372-2.861L3 8.346l.948-.071c1.476-.143 2.952-.269 4.447-.394a381.648 381.648 0 0 1 1.731-4.023L10.491 3l.364.858 1.75 4.023c1.476.125 2.97.25 4.447.394l.948.071-.71.608c-1.13.948-2.26 1.913-3.373 2.86.328 1.431.657 2.862 1.003 4.274l.219.912-.82-.483a429.305 429.305 0 0 1-3.828-2.27z"/>
</symbol><symbol id="icon-tile" viewBox="0 0 19 19">
    <path fill-rule="evenodd" d="M0 0h7v7H0V0zm0 12h7v7H0v-7zM12 0h7v7h-7V0zm0 12h7v7h-7v-7z"/>
</symbol><symbol id="icon-vk" viewBox="0 0 20 11">
    <path fill-rule="nonzero" stroke="none" d="M17.384 4.843c.253-.328.506-.656.675-.903 1.182-1.56 1.688-2.544 1.603-2.955l-.168-.082c-.085-.082-.17-.082-.338-.164-.169-.082-.422-.082-.675 0h-3.46l-.084.164c0 .082-.085.082-.085.164-.337.821-.675 1.642-1.097 2.217-.253.41-.506.82-.675 1.067-.253.328-.422.574-.506.656-.169.165-.253.247-.422.329-.084.082-.169.164-.253.082h-.169l-.253-.246c-.085-.082-.085-.247-.085-.41V.902c0-.082-.084-.246-.084-.328-.084-.082-.084-.165-.253-.247-.085-.082-.253-.082-.338-.164A6.22 6.22 0 0 0 9.283 0C8.017 0 7.257.082 6.835.246c-.168.082-.253.164-.421.329-.085.164-.17.246-.085.246.422.082.76.246.928.41l.085.165c.084.082.084.246.169.492.084.246.084.493.084.739V3.94c0 .329-.084.657-.084.821 0 .164-.085.329-.17.493-.084.164-.084.164-.168.246 0 0 0 .082-.084.082-.085 0-.17.082-.254.082-.084 0-.253-.082-.337-.164-.169-.082-.253-.246-.422-.41-.169-.165-.338-.41-.506-.74-.17-.328-.422-.656-.591-1.066l-.169-.329-.422-.82c-.169-.329-.337-.74-.506-1.068A1.137 1.137 0 0 0 3.629.74h.168S3.713.657 3.63.657c-.085 0-.17-.082-.253-.082H.59C.338.575.084.657 0 .739v.164c0 .082 0 .164.084.246a27.25 27.25 0 0 0 1.35 2.71C1.942 4.76 2.364 5.5 2.7 5.91c.338.575.76 1.068 1.097 1.56.338.493.591.821.76.903.084.164.59.575.59.575.17.164.423.328.76.574.338.247.675.493 1.097.657.422.246.844.41 1.35.575.507.164 1.013.164 1.52.164h1.18a.776.776 0 0 0 .592-.246v-.082s.084-.083.084-.165v-.246c0-.328 0-.575.084-.82.085-.247.085-.411.17-.575.084-.083.168-.247.252-.329l.17-.164h.083c.17-.082.338 0 .591.164.253.164.422.329.675.575.17.246.422.492.76.82.253.33.506.493.76.657l.168.165.506.246c.254.082.422.082.591.082h2.616c.253 0 .506-.082.59-.164.17-.082.254-.164.254-.246v-.329c0-.164-.084-.246-.084-.246 0-.082-.085-.082-.085-.164-.337-.657-1.012-1.396-1.94-2.217l-.845-.82c-.253-.247-.253-.575-.168-.821-.422 0-.085-.41.506-1.15"/>
</symbol><symbol id="icon-youtube" viewBox="0 0 25 18">
    <path fill="none" fill-rule="nonzero" stroke-width="2" d="M23.526 3.504C24.02 5.292 24 9.019 24 9.019s0 3.708-.474 5.496A2.872 2.872 0 0 1 21.5 16.53c-1.8.471-9 .471-9 .471s-7.18 0-8.998-.49a2.872 2.872 0 0 1-2.027-2.014C1 12.727 1 9 1 9s0-3.708.474-5.496A2.931 2.931 0 0 1 3.5 1.47C5.3 1 12.5 1 12.5 1s7.2 0 9 .49a2.872 2.872 0 0 1 2.026 2.014zm-13.318 8.922L16.194 9l-5.986-3.426v6.852z"/>
</symbol><symbol id="shape" viewBox="0 0 14 14">
    <path fill-rule="nonzero" d="M6.26 7.755L8.008 14 14 0 0 5.993z"/>
</symbol><symbol id="thin-icon-close" viewBox="0 0 31 31">
    <g stroke-width="1" fill-rule="evenodd">
        <g id="15_1_t-olympics_one-lecture_popup-1" transform="translate(-958.000000, -254.000000)">
            <path d="M972.284271,268.284271 L972.284271,249.284271 L974.284271,249.284271 L974.284271,268.284271 L993.284271,268.284271 L993.284271,270.284271 L974.284271,270.284271 L974.284271,289.284271 L972.284271,289.284271 L972.284271,270.284271 L953.284271,270.284271 L953.284271,268.284271 L972.284271,268.284271 Z" id="Combined-Shape" transform="translate(973.284271, 269.284271) rotate(45.000000) translate(-973.284271, -269.284271) "/>
        </g>
    </g>
</symbol></svg>